<mxfile host="Electron" agent="Mozilla/5.0 (Windows NT 10.0; Win64; x64) AppleWebKit/537.36 (KHTML, like Gecko) draw.io/26.2.2 Chrome/134.0.6998.178 Electron/35.1.2 Safari/537.36" version="26.2.2">
  <diagram name="第 1 页" id="p2d5pAs-yWk11e5XYmav">
    <mxGraphModel dx="5815" dy="-170" grid="1" gridSize="10" guides="1" tooltips="1" connect="1" arrows="1" fold="1" page="1" pageScale="1" pageWidth="827" pageHeight="1169" math="0" shadow="0">
      <root>
        <mxCell id="0" />
        <mxCell id="1" parent="0" />
        <UserObject label="" plantUmlData="{&quot;data&quot;:&quot;@startuml\npackage goa {\n    package json {\n        class Handler{\n          +bool Null()\n          +bool Bool(bool b)\n          +bool Int32(int32_t i32)\n          +bool Double(double d)\n          +bool String(const std::string_view&amp; s)\n          +bool Key(std::string_view s)\n          +bool StartObject()\n          +bool EndObject()\n          +bool StartArray()\n          +bool EndArray()\n        }\n         /&#39;\n        class noncopyable {\n            +noncopyable() &lt;&lt;protected&gt;&gt;\n            ~noncopyable() &lt;&lt;protected&gt;&gt;\n            +noncopyable(const noncopyable&amp;) = delete\n            +operator=(const noncopyable&amp;) = delete\n        } &#39;/\n          /&#39;\n        enum ParseError {\n            +PARSE_OK\n            +PARSE_ROOT_NOT_SINGULAR\n            +PARSE_BAD_VALUE\n            +PARSE_EXPECT_VALUE\n            +PARSE_NUMBER_TOO_BIG\n            +PARSE_BAD_STRING_CHAR\n            +PARSE_BAD_STRING_ESCAPE\n            +PARSE_BAD_UNICODE_HEX\n            +PARSE_BAD_UNICODE_SURROGATE\n            +PARSE_MISS_QUOTATION_MARK\n            +PARSE_MISS_COMMA_OR_SQUARE_BRACKET\n            +PARSE_MISS_KEY\n            +PARSE_MISS_COLON\n            +PARSE_MISS_COMMA_OR_CURLY_BRACKET\n            +PARSE_USER_STOPPED\n \n        }  &#39;/\n/&#39;\n        class Exception {\n            +Exception(ParseError err)\n            +const char* errStr() const\n            +ParseError err() const\n        }\n        \n        ParseError &lt;..-- Exception \n&#39;/\n        class FileReadStream {\n            - std::vector&lt;char&gt; buffer_\n            - ConstIterator iter_\n/&#39;\n            +FileReadStream(FILE* input)\n            +bool hasNext() const\n            +char peek() const\n            +ConstIterator getConstIter() const\n            +char next()\n            +void assertNext(char c)\n            \n            + using ConstIterator = \n            std::vector&lt;char&gt;::const_iterator\n&#39;/\n        } \n     /&#39;   noncopyable &lt;|-- FileReadStream : inherits  &#39;/\n\n        class FileWriteStream {\n            - FILE* output_\n            +FileWriteStream(FILE* output)\n/&#39;\n            +~FileWriteStream()\n            +void put(char c)\n            +void put(const std::string_view&amp; str)\n&#39;/\n\n        }\n\n       /&#39; noncopyable &lt;|--  FileWriteStream : inherits&#39;/\n\n          /&#39;\n        enum ValueType {\n            TYPE_NULL,\n            TYPE_BOOL,\n            TYPE_INT32,\n            TYPE_INT64,\n            TYPE_DOUBLE,\n            TYPE_STRING,\n            TYPE_ARRAY,\n            TYPE_OBJECT\n        }  &#39;/\n\n        class Value {\n            - ValueType type_\n            - union\n            +Value(ValueType type)\n            +Value(bool b)\n            +Value(int32_t i32)\n            +Value(int64_t i64)\n            +Value(double d)\n            +Value(std::string_view s)\n            +Value(const char* s)\n            +Value(const char* s, size_t len)\n            +Value(const Value&amp; rhs)\n            +Value(Value&amp;&amp; rhs)\n            +Value&amp; operator=(const Value&amp; rhs)\n            +Value&amp; operator=(Value&amp;&amp; rhs)\n            +~Value()\n\n            +ValueType getType() const\n            +size_t getSize() const\n            +bool isNull() const\n            +bool isBool() const\n            +bool isInt32() const\n            +bool isInt64() const\n            +bool isDouble() const\n            +bool isString() const\n            +bool isArray() const\n            +bool isObject() const\n            +bool getBool() const\n            +int32_t getInt32() const\n            +int64_t getInt64() const\n            +double getDouble() const\n            +std::string getString() const\n            +std::string_view getStringView() const\n\n            +Value&amp; operator[](const std::string_view&amp;)\n            +const Value&amp; operator[](const std::string_view&amp;) const\n            +Value&amp; operator[](size_t i)\n            +const Value&amp; operator[](size_t i) const\n\n            +Value&amp; addMember(Value&amp;&amp; key, Value&amp;&amp; value)\n            +template &lt;typename Handler&gt; bool writeTo(Handler&amp;) const\n\n        }\n        /&#39;\n        class Member {\n            +Member(Value&amp;&amp; k, Value&amp;&amp; v)\n            +Member(const std::string_view&amp; k, Value&amp;&amp; v)\n\n            Value key\n            Value value\n        } &#39;/\n\n      /&#39;  ValueType &lt;..-- Value  &#39;/\n      /&#39;  Member &lt;..-- Value  &#39;/\n        Handler &lt;..-- Value\n        \n         class StringReadStream {\n            - const std::string_view json_\n            - ConstIterator iter_\n/&#39;\n            +StringReadStream(const std::string_view&amp; json)\n            +bool hasNext() const\n            +char peek() const\n            +ConstIterator getConstIter() const\n            +char next()\n            +void assertNext(char c)\n\n            + using ConstIterator = std::string_view::const_iterator\n&#39;/\n        }\n\n        /&#39; noncopyable &lt;|-- StringReadStream : inherits &#39;/\n      \n        class StringWriteStream {\n            - std::vector&lt;char&gt; buffer_\n/&#39;\n            +void put(char c)\n            +void put(const std::string_view&amp; str)\n            +std::string_view getStringView() const\n            +std::string getString() const\n&#39;/\n        }\n\n       /&#39; noncopyable &lt;|-- StringWriteStream : inherits  &#39;/\n\n\n        class Writer {\n            - std::vector&lt;Level&gt; stack_\n            - WriteStream&amp; os_\n            - bool seeValue_\n            + Writer(WriteStream&amp; os)\n                /&#39;\n            + Null(): bool\n            + Bool(bool b): bool\n            + Int32(int32_t i32): bool\n            + Int64(int64_t i64): bool\n            + Double(double d): bool\n            + String(std::string_view s): bool\n            + StartObject(): bool\n            + Key(std::string_view s): bool\n            + EndObject(): bool\n            + StartArray(): bool\n            + EndArray(): bool\n&#39;/\n        }\n\n       \n\n \n        StringWriteStream &lt;..-- Writer\n        FileWriteStream &lt;..--  Writer\n        Handler &lt;|..-- Writer\n\n        class Reader {\n            + static ParseError parse(ReadStream&amp; is, Handler&amp; handler): ParseError\n            - static unsigned parseHex4(ReadStream&amp; is): unsigned\n            - static void parseWhiteSpace(ReadStream&amp; is)\n            - static void parseLiteral(ReadStream&amp; is, Handler&amp; handler, const char* literal, ValueType type)\n            - static void parseNumber(ReadStream&amp; is, Handler&amp; handler)\n            - static void parseString(ReadStream&amp; is, Handler&amp; handler, bool isKey)\n            - static void parseArray(ReadStream&amp; is, Handler&amp; handler)\n            - static void parseObject(ReadStream&amp; is, Handler&amp; handler)\n            - static void parseValue(ReadStream&amp; is, Handler&amp; handler)\n/&#39;\n            - static bool isDigit(char ch)\n            - static bool isDigit19(char ch)\n            - static void encodeUtf8(std::string&amp; buffer, unsigned u)\n&#39;/\n        }\n\n        \n        FileReadStream &lt;..-- Reader\n        StringReadStream &lt;..-- Reader\n       /&#39; Exception &lt;..-- Reader &#39;/\n        Handler&lt;..-- Reader\n\n        class Document {\n            - std::vector&lt;Level&gt; stack_\n            - Value key_\n            - bool seeValue_\n            + ParseError parse(const std::string_view&amp; json): ParseError\n            + ParseError parse(const char* json, size_t len): ParseError\n            + ParseError parseStream(ReadStream&amp; is): ParseError\n             /&#39;\n            + bool Null(): bool\n            + bool Bool(bool b): bool\n            + bool Int32(int32_t i32): bool\n            + bool Int64(int64_t i64): bool\n            + bool Double(double d): bool\n            + bool String(const std::string_view&amp; s): bool\n            + bool StartObject(): bool\n            + bool Key(std::string_view s): bool\n            + bool EndObject(): bool\n            + bool StartArray(): bool\n            + bool EndArray(): bool\n                    &#39;/\n        }\n\n        Value &lt;|-- Document \n        Reader &lt;..-- Document\n        Handler &lt;|..-- Document\n        \n    }\n}\n@enduml\n&quot;,&quot;format&quot;:&quot;svg&quot;}" id="KTD6kTrY2ImXXlFWho2t-2">
          <mxCell style="shape=image;noLabel=1;verticalAlign=top;aspect=fixed;imageAspect=0;image=data:image/svg+xml,PD94bWwgdmVyc2lvbj0iMS4wIiBlbmNvZGluZz0idXMtYXNjaWkiIHN0YW5kYWxvbmU9Im5vIj8+PHN2ZyB4bWxucz0iaHR0cDovL3d3dy53My5vcmcvMjAwMC9zdmciIHhtbG5zOnhsaW5rPSJodHRwOi8vd3d3LnczLm9yZy8xOTk5L3hsaW5rIiBjb250ZW50U3R5bGVUeXBlPSJ0ZXh0L2NzcyIgaGVpZ2h0PSIxNjU2cHgiIHByZXNlcnZlQXNwZWN0UmF0aW89Im5vbmUiIHN0eWxlPSJ3aWR0aDoxMzg3cHg7aGVpZ2h0OjE2NTZweDtiYWNrZ3JvdW5kOiNGRkZGRkY7IiB2ZXJzaW9uPSIxLjEiIHZpZXdCb3g9IjAgMCAxMzg3IDE2NTYiIHdpZHRoPSIxMzg3cHgiIHpvb21BbmRQYW49Im1hZ25pZnkiPjxkZWZzLz48Zz48IS0tY2x1c3RlciBnb2EtLT48ZyBpZD0iY2x1c3Rlcl9nb2EiPjxwYXRoIGQ9Ik04LjUsNiBMMzAuNSw2IEEzLjc1LDMuNzUgMCAwIDEgMzMsOC41IEw0MCwyNi45ODQ0IEwxMzc3LjUsMjYuOTg0NCBBMi41LDIuNSAwIDAgMSAxMzgwLDI5LjQ4NDQgTDEzODAsMTY0Ni41IEEyLjUsMi41IDAgMCAxIDEzNzcuNSwxNjQ5IEw4LjUsMTY0OSBBMi41LDIuNSAwIDAgMSA2LDE2NDYuNSBMNiw4LjUgQTIuNSwyLjUgMCAwIDEgOC41LDYgIiBmaWxsPSJub25lIiBzdHlsZT0ic3Ryb2tlOiMwMDAwMDA7c3Ryb2tlLXdpZHRoOjEuNTsiLz48bGluZSBzdHlsZT0ic3Ryb2tlOiMwMDAwMDA7c3Ryb2tlLXdpZHRoOjEuNTsiIHgxPSI2IiB4Mj0iNDAiIHkxPSIyNi45ODQ0IiB5Mj0iMjYuOTg0NCIvPjx0ZXh0IGZpbGw9IiMwMDAwMDAiIGZvbnQtZmFtaWx5PSJzYW5zLXNlcmlmIiBmb250LXNpemU9IjE0IiBmb250LXdlaWdodD0iYm9sZCIgbGVuZ3RoQWRqdXN0PSJzcGFjaW5nIiB0ZXh0TGVuZ3RoPSIyMSIgeD0iMTAiIHk9IjIxLjIzNDQiPmdvYTwvdGV4dD48L2c+PCEtLWNsdXN0ZXIganNvbi0tPjxnIGlkPSJjbHVzdGVyX2pzb24iPjxwYXRoIGQ9Ik0zMi41LDQ3IEw2MS41LDQ3IEEzLjc1LDMuNzUgMCAwIDEgNjQsNDkuNSBMNzEsNjcuOTg0NCBMMTM1My41LDY3Ljk4NDQgQTIuNSwyLjUgMCAwIDEgMTM1Niw3MC40ODQ0IEwxMzU2LDE2MjIuNSBBMi41LDIuNSAwIDAgMSAxMzUzLjUsMTYyNSBMMzIuNSwxNjI1IEEyLjUsMi41IDAgMCAxIDMwLDE2MjIuNSBMMzAsNDkuNSBBMi41LDIuNSAwIDAgMSAzMi41LDQ3ICIgZmlsbD0ibm9uZSIgc3R5bGU9InN0cm9rZTojMDAwMDAwO3N0cm9rZS13aWR0aDoxLjU7Ii8+PGxpbmUgc3R5bGU9InN0cm9rZTojMDAwMDAwO3N0cm9rZS13aWR0aDoxLjU7IiB4MT0iMzAiIHgyPSI3MSIgeTE9IjY3Ljk4NDQiIHkyPSI2Ny45ODQ0Ii8+PHRleHQgZmlsbD0iIzAwMDAwMCIgZm9udC1mYW1pbHk9InNhbnMtc2VyaWYiIGZvbnQtc2l6ZT0iMTQiIGZvbnQtd2VpZ2h0PSJib2xkIiBsZW5ndGhBZGp1c3Q9InNwYWNpbmciIHRleHRMZW5ndGg9IjI4IiB4PSIzNCIgeT0iNjIuMjM0NCI+anNvbjwvdGV4dD48L2c+PCEtLWNsYXNzIEhhbmRsZXItLT48ZyBpZD0iZWxlbV9IYW5kbGVyIj48cmVjdCBjb2RlTGluZT0iMyIgZmlsbD0iI0YxRjFGMSIgaGVpZ2h0PSIxOTcuODQzOCIgaWQ9IkhhbmRsZXIiIHJ4PSIyLjUiIHJ5PSIyLjUiIHN0eWxlPSJzdHJva2U6IzE4MTgxODtzdHJva2Utd2lkdGg6MC41OyIgd2lkdGg9IjI5NSIgeD0iMTA0NC41IiB5PSI4MCIvPjxlbGxpcHNlIGN4PSIxMTYzLjI1IiBjeT0iOTYiIGZpbGw9IiNBREQxQjIiIHJ4PSIxMSIgcnk9IjExIiBzdHlsZT0ic3Ryb2tlOiMxODE4MTg7c3Ryb2tlLXdpZHRoOjEuMDsiLz48cGF0aCBkPSJNMTE2MC44NzUsMTAwLjI1IEwxMTYwLjg3NSwxMDIgTDExNjUuODEyNSwxMDIgTDExNjUuODEyNSwxMDAuMjUgTDExNjAuODc1LDEwMC4yNSBaIE0xMTYxLjU2MjUsMTAwLjkzNzUgUTExNjEuNTYyNSwxMDAuOTM3NSAxMTYxLjU2MjUsOTEuNzUgTDExNTkuODEyNSw5MS43NSBRMTE1OS44MTI1LDkxLjc1IDExNTkuODEyNSwxMDAuOTM3NSBMMTE2MS41NjI1LDEwMC45Mzc1IFogTTExNjUuMTI1LDEwMC45Mzc1IEwxMTY2Ljg3NSwxMDAuOTM3NSBRMTE2Ni44NzUsMTAwLjkzNzUgMTE2Ni44NzUsOTguMTI1IEwxMTY1LjEyNSw5OC4xMjUgUTExNjUuMTI1LDk4LjEyNSAxMTY1LjEyNSwxMDAuOTM3NSBaIE0xMTY1LjEyNSw5MS43NSBRMTE2NS4xMjUsOTEuNzUgMTE2NS4xMjUsOTQuNTYyNSBMMTE2Ni44NzUsOTQuNTYyNSBRMTE2Ni44NzUsOTQuNTYyNSAxMTY2Ljg3NSw5MS43NSBMMTE2NS4xMjUsOTEuNzUgWiBNMTE2MC44NzUsOTIuNDM3NSBMMTE2NS44MTI1LDkyLjQzNzUgTDExNjUuODEyNSw5MC42ODc1IEwxMTYwLjg3NSw5MC42ODc1IEwxMTYwLjg3NSw5Mi40Mzc1IFogIiBmaWxsPSIjMDAwMDAwIi8+PHRleHQgZmlsbD0iIzAwMDAwMCIgZm9udC1mYW1pbHk9InNhbnMtc2VyaWYiIGZvbnQtc2l6ZT0iMTQiIGxlbmd0aEFkanVzdD0ic3BhY2luZyIgdGV4dExlbmd0aD0iNDkiIHg9IjExODMuNzUiIHk9IjEwMS43NDIyIj5IYW5kbGVyPC90ZXh0PjxsaW5lIHN0eWxlPSJzdHJva2U6IzE4MTgxODtzdHJva2Utd2lkdGg6MC41OyIgeDE9IjEwNDUuNSIgeDI9IjEzMzguNSIgeTE9IjExMiIgeTI9IjExMiIvPjxsaW5lIHN0eWxlPSJzdHJva2U6IzE4MTgxODtzdHJva2Utd2lkdGg6MC41OyIgeDE9IjEwNDUuNSIgeDI9IjEzMzguNSIgeTE9IjEyMCIgeTI9IjEyMCIvPjxlbGxpcHNlIGN4PSIxMDU1LjUiIGN5PSIxMzIuOTkyMiIgZmlsbD0iIzg0QkU4NCIgcng9IjMiIHJ5PSIzIiBzdHlsZT0ic3Ryb2tlOiMwMzgwNDg7c3Ryb2tlLXdpZHRoOjEuMDsiLz48dGV4dCBmaWxsPSIjMDAwMDAwIiBmb250LWZhbWlseT0ic2Fucy1zZXJpZiIgZm9udC1zaXplPSIxNCIgbGVuZ3RoQWRqdXN0PSJzcGFjaW5nIiB0ZXh0TGVuZ3RoPSI3OSIgeD0iMTA2NC41IiB5PSIxMzcuMjM0NCI+Ym9vbCBOdWxsKCk8L3RleHQ+PGVsbGlwc2UgY3g9IjEwNTUuNSIgY3k9IjE0Ny45NzY2IiBmaWxsPSIjODRCRTg0IiByeD0iMyIgcnk9IjMiIHN0eWxlPSJzdHJva2U6IzAzODA0ODtzdHJva2Utd2lkdGg6MS4wOyIvPjx0ZXh0IGZpbGw9IiMwMDAwMDAiIGZvbnQtZmFtaWx5PSJzYW5zLXNlcmlmIiBmb250LXNpemU9IjE0IiBsZW5ndGhBZGp1c3Q9InNwYWNpbmciIHRleHRMZW5ndGg9IjEyMSIgeD0iMTA2NC41IiB5PSIxNTIuMjE4OCI+Ym9vbCBCb29sKGJvb2wgYik8L3RleHQ+PGVsbGlwc2UgY3g9IjEwNTUuNSIgY3k9IjE2Mi45NjA5IiBmaWxsPSIjODRCRTg0IiByeD0iMyIgcnk9IjMiIHN0eWxlPSJzdHJva2U6IzAzODA0ODtzdHJva2Utd2lkdGg6MS4wOyIvPjx0ZXh0IGZpbGw9IiMwMDAwMDAiIGZvbnQtZmFtaWx5PSJzYW5zLXNlcmlmIiBmb250LXNpemU9IjE0IiBsZW5ndGhBZGp1c3Q9InNwYWNpbmciIHRleHRMZW5ndGg9IjE2MyIgeD0iMTA2NC41IiB5PSIxNjcuMjAzMSI+Ym9vbCBJbnQzMihpbnQzMl90IGkzMik8L3RleHQ+PGVsbGlwc2UgY3g9IjEwNTUuNSIgY3k9IjE3Ny45NDUzIiBmaWxsPSIjODRCRTg0IiByeD0iMyIgcnk9IjMiIHN0eWxlPSJzdHJva2U6IzAzODA0ODtzdHJva2Utd2lkdGg6MS4wOyIvPjx0ZXh0IGZpbGw9IiMwMDAwMDAiIGZvbnQtZmFtaWx5PSJzYW5zLXNlcmlmIiBmb250LXNpemU9IjE0IiBsZW5ndGhBZGp1c3Q9InNwYWNpbmciIHRleHRMZW5ndGg9IjE0OSIgeD0iMTA2NC41IiB5PSIxODIuMTg3NSI+Ym9vbCBEb3VibGUoZG91YmxlIGQpPC90ZXh0PjxlbGxpcHNlIGN4PSIxMDU1LjUiIGN5PSIxOTIuOTI5NyIgZmlsbD0iIzg0QkU4NCIgcng9IjMiIHJ5PSIzIiBzdHlsZT0ic3Ryb2tlOiMwMzgwNDg7c3Ryb2tlLXdpZHRoOjEuMDsiLz48dGV4dCBmaWxsPSIjMDAwMDAwIiBmb250LWZhbWlseT0ic2Fucy1zZXJpZiIgZm9udC1zaXplPSIxNCIgbGVuZ3RoQWRqdXN0PSJzcGFjaW5nIiB0ZXh0TGVuZ3RoPSIyNjkiIHg9IjEwNjQuNSIgeT0iMTk3LjE3MTkiPmJvb2wgU3RyaW5nKGNvbnN0IHN0ZDo6c3RyaW5nX3ZpZXcmYW1wOyBzKTwvdGV4dD48ZWxsaXBzZSBjeD0iMTA1NS41IiBjeT0iMjA3LjkxNDEiIGZpbGw9IiM4NEJFODQiIHJ4PSIzIiByeT0iMyIgc3R5bGU9InN0cm9rZTojMDM4MDQ4O3N0cm9rZS13aWR0aDoxLjA7Ii8+PHRleHQgZmlsbD0iIzAwMDAwMCIgZm9udC1mYW1pbHk9InNhbnMtc2VyaWYiIGZvbnQtc2l6ZT0iMTQiIGxlbmd0aEFkanVzdD0ic3BhY2luZyIgdGV4dExlbmd0aD0iMTk5IiB4PSIxMDY0LjUiIHk9IjIxMi4xNTYzIj5ib29sIEtleShzdGQ6OnN0cmluZ192aWV3IHMpPC90ZXh0PjxlbGxpcHNlIGN4PSIxMDU1LjUiIGN5PSIyMjIuODk4NCIgZmlsbD0iIzg0QkU4NCIgcng9IjMiIHJ5PSIzIiBzdHlsZT0ic3Ryb2tlOiMwMzgwNDg7c3Ryb2tlLXdpZHRoOjEuMDsiLz48dGV4dCBmaWxsPSIjMDAwMDAwIiBmb250LWZhbWlseT0ic2Fucy1zZXJpZiIgZm9udC1zaXplPSIxNCIgbGVuZ3RoQWRqdXN0PSJzcGFjaW5nIiB0ZXh0TGVuZ3RoPSIxMjgiIHg9IjEwNjQuNSIgeT0iMjI3LjE0MDYiPmJvb2wgU3RhcnRPYmplY3QoKTwvdGV4dD48ZWxsaXBzZSBjeD0iMTA1NS41IiBjeT0iMjM3Ljg4MjgiIGZpbGw9IiM4NEJFODQiIHJ4PSIzIiByeT0iMyIgc3R5bGU9InN0cm9rZTojMDM4MDQ4O3N0cm9rZS13aWR0aDoxLjA7Ii8+PHRleHQgZmlsbD0iIzAwMDAwMCIgZm9udC1mYW1pbHk9InNhbnMtc2VyaWYiIGZvbnQtc2l6ZT0iMTQiIGxlbmd0aEFkanVzdD0ic3BhY2luZyIgdGV4dExlbmd0aD0iMTE0IiB4PSIxMDY0LjUiIHk9IjI0Mi4xMjUiPmJvb2wgRW5kT2JqZWN0KCk8L3RleHQ+PGVsbGlwc2UgY3g9IjEwNTUuNSIgY3k9IjI1Mi44NjcyIiBmaWxsPSIjODRCRTg0IiByeD0iMyIgcnk9IjMiIHN0eWxlPSJzdHJva2U6IzAzODA0ODtzdHJva2Utd2lkdGg6MS4wOyIvPjx0ZXh0IGZpbGw9IiMwMDAwMDAiIGZvbnQtZmFtaWx5PSJzYW5zLXNlcmlmIiBmb250LXNpemU9IjE0IiBsZW5ndGhBZGp1c3Q9InNwYWNpbmciIHRleHRMZW5ndGg9IjEyMSIgeD0iMTA2NC41IiB5PSIyNTcuMTA5NCI+Ym9vbCBTdGFydEFycmF5KCk8L3RleHQ+PGVsbGlwc2UgY3g9IjEwNTUuNSIgY3k9IjI2Ny44NTE2IiBmaWxsPSIjODRCRTg0IiByeD0iMyIgcnk9IjMiIHN0eWxlPSJzdHJva2U6IzAzODA0ODtzdHJva2Utd2lkdGg6MS4wOyIvPjx0ZXh0IGZpbGw9IiMwMDAwMDAiIGZvbnQtZmFtaWx5PSJzYW5zLXNlcmlmIiBmb250LXNpemU9IjE0IiBsZW5ndGhBZGp1c3Q9InNwYWNpbmciIHRleHRMZW5ndGg9IjEwNyIgeD0iMTA2NC41IiB5PSIyNzIuMDkzOCI+Ym9vbCBFbmRBcnJheSgpPC90ZXh0PjwvZz48IS0tY2xhc3MgRmlsZVJlYWRTdHJlYW0tLT48ZyBpZD0iZWxlbV9GaWxlUmVhZFN0cmVhbSI+PHJlY3QgY29kZUxpbmU9IjUwIiBmaWxsPSIjRjFGMUYxIiBoZWlnaHQ9Ijc3Ljk2ODgiIGlkPSJGaWxlUmVhZFN0cmVhbSIgcng9IjIuNSIgcnk9IjIuNSIgc3R5bGU9InN0cm9rZTojMTgxODE4O3N0cm9rZS13aWR0aDowLjU7IiB3aWR0aD0iMjAxIiB4PSI4MDguNSIgeT0iMTQwIi8+PGVsbGlwc2UgY3g9Ijg1NS4yNSIgY3k9IjE1NiIgZmlsbD0iI0FERDFCMiIgcng9IjExIiByeT0iMTEiIHN0eWxlPSJzdHJva2U6IzE4MTgxODtzdHJva2Utd2lkdGg6MS4wOyIvPjxwYXRoIGQ9Ik04NTIuODc1LDE2MC4yNSBMODUyLjg3NSwxNjIgTDg1Ny44MTI1LDE2MiBMODU3LjgxMjUsMTYwLjI1IEw4NTIuODc1LDE2MC4yNSBaIE04NTMuNTYyNSwxNjAuOTM3NSBRODUzLjU2MjUsMTYwLjkzNzUgODUzLjU2MjUsMTUxLjc1IEw4NTEuODEyNSwxNTEuNzUgUTg1MS44MTI1LDE1MS43NSA4NTEuODEyNSwxNjAuOTM3NSBMODUzLjU2MjUsMTYwLjkzNzUgWiBNODU3LjEyNSwxNjAuOTM3NSBMODU4Ljg3NSwxNjAuOTM3NSBRODU4Ljg3NSwxNjAuOTM3NSA4NTguODc1LDE1OC4xMjUgTDg1Ny4xMjUsMTU4LjEyNSBRODU3LjEyNSwxNTguMTI1IDg1Ny4xMjUsMTYwLjkzNzUgWiBNODU3LjEyNSwxNTEuNzUgUTg1Ny4xMjUsMTUxLjc1IDg1Ny4xMjUsMTU0LjU2MjUgTDg1OC44NzUsMTU0LjU2MjUgUTg1OC44NzUsMTU0LjU2MjUgODU4Ljg3NSwxNTEuNzUgTDg1Ny4xMjUsMTUxLjc1IFogTTg1Mi44NzUsMTUyLjQzNzUgTDg1Ny44MTI1LDE1Mi40Mzc1IEw4NTcuODEyNSwxNTAuNjg3NSBMODUyLjg3NSwxNTAuNjg3NSBMODUyLjg3NSwxNTIuNDM3NSBaICIgZmlsbD0iIzAwMDAwMCIvPjx0ZXh0IGZpbGw9IiMwMDAwMDAiIGZvbnQtZmFtaWx5PSJzYW5zLXNlcmlmIiBmb250LXNpemU9IjE0IiBsZW5ndGhBZGp1c3Q9InNwYWNpbmciIHRleHRMZW5ndGg9Ijk5IiB4PSI4NzUuNzUiIHk9IjE2MS43NDIyIj5GaWxlUmVhZFN0cmVhbTwvdGV4dD48bGluZSBzdHlsZT0ic3Ryb2tlOiMxODE4MTg7c3Ryb2tlLXdpZHRoOjAuNTsiIHgxPSI4MDkuNSIgeDI9IjEwMDguNSIgeTE9IjE3MiIgeTI9IjE3MiIvPjxyZWN0IGZpbGw9Im5vbmUiIGhlaWdodD0iNiIgc3R5bGU9InN0cm9rZTojQzgyOTMwO3N0cm9rZS13aWR0aDoxLjA7IiB3aWR0aD0iNiIgeD0iODE2LjUiIHk9IjE4MS45OTIyIi8+PHRleHQgZmlsbD0iIzAwMDAwMCIgZm9udC1mYW1pbHk9InNhbnMtc2VyaWYiIGZvbnQtc2l6ZT0iMTQiIGxlbmd0aEFkanVzdD0ic3BhY2luZyIgdGV4dExlbmd0aD0iMTc1IiB4PSI4MjguNSIgeT0iMTg5LjIzNDQiPnN0ZDo6dmVjdG9yJmx0O2NoYXImZ3Q7IGJ1ZmZlcl88L3RleHQ+PHJlY3QgZmlsbD0ibm9uZSIgaGVpZ2h0PSI2IiBzdHlsZT0ic3Ryb2tlOiNDODI5MzA7c3Ryb2tlLXdpZHRoOjEuMDsiIHdpZHRoPSI2IiB4PSI4MTYuNSIgeT0iMTk2Ljk3NjYiLz48dGV4dCBmaWxsPSIjMDAwMDAwIiBmb250LWZhbWlseT0ic2Fucy1zZXJpZiIgZm9udC1zaXplPSIxNCIgbGVuZ3RoQWRqdXN0PSJzcGFjaW5nIiB0ZXh0TGVuZ3RoPSIxMzMiIHg9IjgyOC41IiB5PSIyMDQuMjE4OCI+Q29uc3RJdGVyYXRvciBpdGVyXzwvdGV4dD48bGluZSBzdHlsZT0ic3Ryb2tlOiMxODE4MTg7c3Ryb2tlLXdpZHRoOjAuNTsiIHgxPSI4MDkuNSIgeDI9IjEwMDguNSIgeTE9IjIwOS45Njg4IiB5Mj0iMjA5Ljk2ODgiLz48L2c+PCEtLWNsYXNzIEZpbGVXcml0ZVN0cmVhbS0tPjxnIGlkPSJlbGVtX0ZpbGVXcml0ZVN0cmVhbSI+PHJlY3QgY29kZUxpbmU9IjY3IiBmaWxsPSIjRjFGMUYxIiBoZWlnaHQ9Ijc3Ljk2ODgiIGlkPSJGaWxlV3JpdGVTdHJlYW0iIHJ4PSIyLjUiIHJ5PSIyLjUiIHN0eWxlPSJzdHJva2U6IzE4MTgxODtzdHJva2Utd2lkdGg6MC41OyIgd2lkdGg9IjIzMiIgeD0iMjgzIiB5PSIxNDAiLz48ZWxsaXBzZSBjeD0iMzQxLjc1IiBjeT0iMTU2IiBmaWxsPSIjQUREMUIyIiByeD0iMTEiIHJ5PSIxMSIgc3R5bGU9InN0cm9rZTojMTgxODE4O3N0cm9rZS13aWR0aDoxLjA7Ii8+PHBhdGggZD0iTTMzOS4zNzUsMTYwLjI1IEwzMzkuMzc1LDE2MiBMMzQ0LjMxMjUsMTYyIEwzNDQuMzEyNSwxNjAuMjUgTDMzOS4zNzUsMTYwLjI1IFogTTM0MC4wNjI1LDE2MC45Mzc1IFEzNDAuMDYyNSwxNjAuOTM3NSAzNDAuMDYyNSwxNTEuNzUgTDMzOC4zMTI1LDE1MS43NSBRMzM4LjMxMjUsMTUxLjc1IDMzOC4zMTI1LDE2MC45Mzc1IEwzNDAuMDYyNSwxNjAuOTM3NSBaIE0zNDMuNjI1LDE2MC45Mzc1IEwzNDUuMzc1LDE2MC45Mzc1IFEzNDUuMzc1LDE2MC45Mzc1IDM0NS4zNzUsMTU4LjEyNSBMMzQzLjYyNSwxNTguMTI1IFEzNDMuNjI1LDE1OC4xMjUgMzQzLjYyNSwxNjAuOTM3NSBaIE0zNDMuNjI1LDE1MS43NSBRMzQzLjYyNSwxNTEuNzUgMzQzLjYyNSwxNTQuNTYyNSBMMzQ1LjM3NSwxNTQuNTYyNSBRMzQ1LjM3NSwxNTQuNTYyNSAzNDUuMzc1LDE1MS43NSBMMzQzLjYyNSwxNTEuNzUgWiBNMzM5LjM3NSwxNTIuNDM3NSBMMzQ0LjMxMjUsMTUyLjQzNzUgTDM0NC4zMTI1LDE1MC42ODc1IEwzMzkuMzc1LDE1MC42ODc1IEwzMzkuMzc1LDE1Mi40Mzc1IFogIiBmaWxsPSIjMDAwMDAwIi8+PHRleHQgZmlsbD0iIzAwMDAwMCIgZm9udC1mYW1pbHk9InNhbnMtc2VyaWYiIGZvbnQtc2l6ZT0iMTQiIGxlbmd0aEFkanVzdD0ic3BhY2luZyIgdGV4dExlbmd0aD0iMTA2IiB4PSIzNjIuMjUiIHk9IjE2MS43NDIyIj5GaWxlV3JpdGVTdHJlYW08L3RleHQ+PGxpbmUgc3R5bGU9InN0cm9rZTojMTgxODE4O3N0cm9rZS13aWR0aDowLjU7IiB4MT0iMjg0IiB4Mj0iNTE0IiB5MT0iMTcyIiB5Mj0iMTcyIi8+PHJlY3QgZmlsbD0ibm9uZSIgaGVpZ2h0PSI2IiBzdHlsZT0ic3Ryb2tlOiNDODI5MzA7c3Ryb2tlLXdpZHRoOjEuMDsiIHdpZHRoPSI2IiB4PSIyOTEiIHk9IjE4MS45OTIyIi8+PHRleHQgZmlsbD0iIzAwMDAwMCIgZm9udC1mYW1pbHk9InNhbnMtc2VyaWYiIGZvbnQtc2l6ZT0iMTQiIGxlbmd0aEFkanVzdD0ic3BhY2luZyIgdGV4dExlbmd0aD0iOTEiIHg9IjMwMyIgeT0iMTg5LjIzNDQiPkZJTEUqIG91dHB1dF88L3RleHQ+PGxpbmUgc3R5bGU9InN0cm9rZTojMTgxODE4O3N0cm9rZS13aWR0aDowLjU7IiB4MT0iMjg0IiB4Mj0iNTE0IiB5MT0iMTk0Ljk4NDQiIHkyPSIxOTQuOTg0NCIvPjxlbGxpcHNlIGN4PSIyOTQiIGN5PSIyMDcuOTc2NiIgZmlsbD0iIzg0QkU4NCIgcng9IjMiIHJ5PSIzIiBzdHlsZT0ic3Ryb2tlOiMwMzgwNDg7c3Ryb2tlLXdpZHRoOjEuMDsiLz48dGV4dCBmaWxsPSIjMDAwMDAwIiBmb250LWZhbWlseT0ic2Fucy1zZXJpZiIgZm9udC1zaXplPSIxNCIgbGVuZ3RoQWRqdXN0PSJzcGFjaW5nIiB0ZXh0TGVuZ3RoPSIyMDYiIHg9IjMwMyIgeT0iMjEyLjIxODgiPkZpbGVXcml0ZVN0cmVhbShGSUxFKiBvdXRwdXQpPC90ZXh0PjwvZz48IS0tY2xhc3MgVmFsdWUtLT48ZyBpZD0iZWxlbV9WYWx1ZSI+PHJlY3QgY29kZUxpbmU9IjkyIiBmaWxsPSIjRjFGMUYxIiBoZWlnaHQ9IjY0Ny4zNzUiIGlkPSJWYWx1ZSIgcng9IjIuNSIgcnk9IjIuNSIgc3R5bGU9InN0cm9rZTojMTgxODE4O3N0cm9rZS13aWR0aDowLjU7IiB3aWR0aD0iNDIzIiB4PSI4NjIuNSIgeT0iNzAzIi8+PGVsbGlwc2UgY3g9IjEwNTIuMjUiIGN5PSI3MTkiIGZpbGw9IiNBREQxQjIiIHJ4PSIxMSIgcnk9IjExIiBzdHlsZT0ic3Ryb2tlOiMxODE4MTg7c3Ryb2tlLXdpZHRoOjEuMDsiLz48cGF0aCBkPSJNMTA0OS44NzUsNzIzLjI1IEwxMDQ5Ljg3NSw3MjUgTDEwNTQuODEyNSw3MjUgTDEwNTQuODEyNSw3MjMuMjUgTDEwNDkuODc1LDcyMy4yNSBaIE0xMDUwLjU2MjUsNzIzLjkzNzUgUTEwNTAuNTYyNSw3MjMuOTM3NSAxMDUwLjU2MjUsNzE0Ljc1IEwxMDQ4LjgxMjUsNzE0Ljc1IFExMDQ4LjgxMjUsNzE0Ljc1IDEwNDguODEyNSw3MjMuOTM3NSBMMTA1MC41NjI1LDcyMy45Mzc1IFogTTEwNTQuMTI1LDcyMy45Mzc1IEwxMDU1Ljg3NSw3MjMuOTM3NSBRMTA1NS44NzUsNzIzLjkzNzUgMTA1NS44NzUsNzIxLjEyNSBMMTA1NC4xMjUsNzIxLjEyNSBRMTA1NC4xMjUsNzIxLjEyNSAxMDU0LjEyNSw3MjMuOTM3NSBaIE0xMDU0LjEyNSw3MTQuNzUgUTEwNTQuMTI1LDcxNC43NSAxMDU0LjEyNSw3MTcuNTYyNSBMMTA1NS44NzUsNzE3LjU2MjUgUTEwNTUuODc1LDcxNy41NjI1IDEwNTUuODc1LDcxNC43NSBMMTA1NC4xMjUsNzE0Ljc1IFogTTEwNDkuODc1LDcxNS40Mzc1IEwxMDU0LjgxMjUsNzE1LjQzNzUgTDEwNTQuODEyNSw3MTMuNjg3NSBMMTA0OS44NzUsNzEzLjY4NzUgTDEwNDkuODc1LDcxNS40Mzc1IFogIiBmaWxsPSIjMDAwMDAwIi8+PHRleHQgZmlsbD0iIzAwMDAwMCIgZm9udC1mYW1pbHk9InNhbnMtc2VyaWYiIGZvbnQtc2l6ZT0iMTQiIGxlbmd0aEFkanVzdD0ic3BhY2luZyIgdGV4dExlbmd0aD0iMzUiIHg9IjEwNzIuNzUiIHk9IjcyNC43NDIyIj5WYWx1ZTwvdGV4dD48bGluZSBzdHlsZT0ic3Ryb2tlOiMxODE4MTg7c3Ryb2tlLXdpZHRoOjAuNTsiIHgxPSI4NjMuNSIgeDI9IjEyODQuNSIgeTE9IjczNSIgeTI9IjczNSIvPjxyZWN0IGZpbGw9Im5vbmUiIGhlaWdodD0iNiIgc3R5bGU9InN0cm9rZTojQzgyOTMwO3N0cm9rZS13aWR0aDoxLjA7IiB3aWR0aD0iNiIgeD0iODcwLjUiIHk9Ijc0NC45OTIyIi8+PHRleHQgZmlsbD0iIzAwMDAwMCIgZm9udC1mYW1pbHk9InNhbnMtc2VyaWYiIGZvbnQtc2l6ZT0iMTQiIGxlbmd0aEFkanVzdD0ic3BhY2luZyIgdGV4dExlbmd0aD0iMTA1IiB4PSI4ODIuNSIgeT0iNzUyLjIzNDQiPlZhbHVlVHlwZSB0eXBlXzwvdGV4dD48cmVjdCBmaWxsPSJub25lIiBoZWlnaHQ9IjYiIHN0eWxlPSJzdHJva2U6I0M4MjkzMDtzdHJva2Utd2lkdGg6MS4wOyIgd2lkdGg9IjYiIHg9Ijg3MC41IiB5PSI3NTkuOTc2NiIvPjx0ZXh0IGZpbGw9IiMwMDAwMDAiIGZvbnQtZmFtaWx5PSJzYW5zLXNlcmlmIiBmb250LXNpemU9IjE0IiBsZW5ndGhBZGp1c3Q9InNwYWNpbmciIHRleHRMZW5ndGg9IjM1IiB4PSI4ODIuNSIgeT0iNzY3LjIxODgiPnVuaW9uPC90ZXh0PjxsaW5lIHN0eWxlPSJzdHJva2U6IzE4MTgxODtzdHJva2Utd2lkdGg6MC41OyIgeDE9Ijg2My41IiB4Mj0iMTI4NC41IiB5MT0iNzcyLjk2ODgiIHkyPSI3NzIuOTY4OCIvPjxlbGxpcHNlIGN4PSI4NzMuNSIgY3k9Ijc4NS45NjA5IiBmaWxsPSIjODRCRTg0IiByeD0iMyIgcnk9IjMiIHN0eWxlPSJzdHJva2U6IzAzODA0ODtzdHJva2Utd2lkdGg6MS4wOyIvPjx0ZXh0IGZpbGw9IiMwMDAwMDAiIGZvbnQtZmFtaWx5PSJzYW5zLXNlcmlmIiBmb250LXNpemU9IjE0IiBsZW5ndGhBZGp1c3Q9InNwYWNpbmciIHRleHRMZW5ndGg9IjE0OSIgeD0iODgyLjUiIHk9Ijc5MC4yMDMxIj5WYWx1ZShWYWx1ZVR5cGUgdHlwZSk8L3RleHQ+PGVsbGlwc2UgY3g9Ijg3My41IiBjeT0iODAwLjk0NTMiIGZpbGw9IiM4NEJFODQiIHJ4PSIzIiByeT0iMyIgc3R5bGU9InN0cm9rZTojMDM4MDQ4O3N0cm9rZS13aWR0aDoxLjA7Ii8+PHRleHQgZmlsbD0iIzAwMDAwMCIgZm9udC1mYW1pbHk9InNhbnMtc2VyaWYiIGZvbnQtc2l6ZT0iMTQiIGxlbmd0aEFkanVzdD0ic3BhY2luZyIgdGV4dExlbmd0aD0iOTMiIHg9Ijg4Mi41IiB5PSI4MDUuMTg3NSI+VmFsdWUoYm9vbCBiKTwvdGV4dD48ZWxsaXBzZSBjeD0iODczLjUiIGN5PSI4MTUuOTI5NyIgZmlsbD0iIzg0QkU4NCIgcng9IjMiIHJ5PSIzIiBzdHlsZT0ic3Ryb2tlOiMwMzgwNDg7c3Ryb2tlLXdpZHRoOjEuMDsiLz48dGV4dCBmaWxsPSIjMDAwMDAwIiBmb250LWZhbWlseT0ic2Fucy1zZXJpZiIgZm9udC1zaXplPSIxNCIgbGVuZ3RoQWRqdXN0PSJzcGFjaW5nIiB0ZXh0TGVuZ3RoPSIxMjgiIHg9Ijg4Mi41IiB5PSI4MjAuMTcxOSI+VmFsdWUoaW50MzJfdCBpMzIpPC90ZXh0PjxlbGxpcHNlIGN4PSI4NzMuNSIgY3k9IjgzMC45MTQxIiBmaWxsPSIjODRCRTg0IiByeD0iMyIgcnk9IjMiIHN0eWxlPSJzdHJva2U6IzAzODA0ODtzdHJva2Utd2lkdGg6MS4wOyIvPjx0ZXh0IGZpbGw9IiMwMDAwMDAiIGZvbnQtZmFtaWx5PSJzYW5zLXNlcmlmIiBmb250LXNpemU9IjE0IiBsZW5ndGhBZGp1c3Q9InNwYWNpbmciIHRleHRMZW5ndGg9IjEyOCIgeD0iODgyLjUiIHk9IjgzNS4xNTYzIj5WYWx1ZShpbnQ2NF90IGk2NCk8L3RleHQ+PGVsbGlwc2UgY3g9Ijg3My41IiBjeT0iODQ1Ljg5ODQiIGZpbGw9IiM4NEJFODQiIHJ4PSIzIiByeT0iMyIgc3R5bGU9InN0cm9rZTojMDM4MDQ4O3N0cm9rZS13aWR0aDoxLjA7Ii8+PHRleHQgZmlsbD0iIzAwMDAwMCIgZm9udC1mYW1pbHk9InNhbnMtc2VyaWYiIGZvbnQtc2l6ZT0iMTQiIGxlbmd0aEFkanVzdD0ic3BhY2luZyIgdGV4dExlbmd0aD0iMTA3IiB4PSI4ODIuNSIgeT0iODUwLjE0MDYiPlZhbHVlKGRvdWJsZSBkKTwvdGV4dD48ZWxsaXBzZSBjeD0iODczLjUiIGN5PSI4NjAuODgyOCIgZmlsbD0iIzg0QkU4NCIgcng9IjMiIHJ5PSIzIiBzdHlsZT0ic3Ryb2tlOiMwMzgwNDg7c3Ryb2tlLXdpZHRoOjEuMDsiLz48dGV4dCBmaWxsPSIjMDAwMDAwIiBmb250LWZhbWlseT0ic2Fucy1zZXJpZiIgZm9udC1zaXplPSIxNCIgbGVuZ3RoQWRqdXN0PSJzcGFjaW5nIiB0ZXh0TGVuZ3RoPSIxNzgiIHg9Ijg4Mi41IiB5PSI4NjUuMTI1Ij5WYWx1ZShzdGQ6OnN0cmluZ192aWV3IHMpPC90ZXh0PjxlbGxpcHNlIGN4PSI4NzMuNSIgY3k9Ijg3NS44NjcyIiBmaWxsPSIjODRCRTg0IiByeD0iMyIgcnk9IjMiIHN0eWxlPSJzdHJva2U6IzAzODA0ODtzdHJva2Utd2lkdGg6MS4wOyIvPjx0ZXh0IGZpbGw9IiMwMDAwMDAiIGZvbnQtZmFtaWx5PSJzYW5zLXNlcmlmIiBmb250LXNpemU9IjE0IiBsZW5ndGhBZGp1c3Q9InNwYWNpbmciIHRleHRMZW5ndGg9IjE0MiIgeD0iODgyLjUiIHk9Ijg4MC4xMDk0Ij5WYWx1ZShjb25zdCBjaGFyKiBzKTwvdGV4dD48ZWxsaXBzZSBjeD0iODczLjUiIGN5PSI4OTAuODUxNiIgZmlsbD0iIzg0QkU4NCIgcng9IjMiIHJ5PSIzIiBzdHlsZT0ic3Ryb2tlOiMwMzgwNDg7c3Ryb2tlLXdpZHRoOjEuMDsiLz48dGV4dCBmaWxsPSIjMDAwMDAwIiBmb250LWZhbWlseT0ic2Fucy1zZXJpZiIgZm9udC1zaXplPSIxNCIgbGVuZ3RoQWRqdXN0PSJzcGFjaW5nIiB0ZXh0TGVuZ3RoPSIyMjYiIHg9Ijg4Mi41IiB5PSI4OTUuMDkzOCI+VmFsdWUoY29uc3QgY2hhciogcywgc2l6ZV90IGxlbik8L3RleHQ+PGVsbGlwc2UgY3g9Ijg3My41IiBjeT0iOTA1LjgzNTkiIGZpbGw9IiM4NEJFODQiIHJ4PSIzIiByeT0iMyIgc3R5bGU9InN0cm9rZTojMDM4MDQ4O3N0cm9rZS13aWR0aDoxLjA7Ii8+PHRleHQgZmlsbD0iIzAwMDAwMCIgZm9udC1mYW1pbHk9InNhbnMtc2VyaWYiIGZvbnQtc2l6ZT0iMTQiIGxlbmd0aEFkanVzdD0ic3BhY2luZyIgdGV4dExlbmd0aD0iMTYzIiB4PSI4ODIuNSIgeT0iOTEwLjA3ODEiPlZhbHVlKGNvbnN0IFZhbHVlJmFtcDsgcmhzKTwvdGV4dD48ZWxsaXBzZSBjeD0iODczLjUiIGN5PSI5MjAuODIwMyIgZmlsbD0iIzg0QkU4NCIgcng9IjMiIHJ5PSIzIiBzdHlsZT0ic3Ryb2tlOiMwMzgwNDg7c3Ryb2tlLXdpZHRoOjEuMDsiLz48dGV4dCBmaWxsPSIjMDAwMDAwIiBmb250LWZhbWlseT0ic2Fucy1zZXJpZiIgZm9udC1zaXplPSIxNCIgbGVuZ3RoQWRqdXN0PSJzcGFjaW5nIiB0ZXh0TGVuZ3RoPSIxMjgiIHg9Ijg4Mi41IiB5PSI5MjUuMDYyNSI+VmFsdWUoVmFsdWUmYW1wOyZhbXA7IHJocyk8L3RleHQ+PGVsbGlwc2UgY3g9Ijg3My41IiBjeT0iOTM1LjgwNDciIGZpbGw9IiM4NEJFODQiIHJ4PSIzIiByeT0iMyIgc3R5bGU9InN0cm9rZTojMDM4MDQ4O3N0cm9rZS13aWR0aDoxLjA7Ii8+PHRleHQgZmlsbD0iIzAwMDAwMCIgZm9udC1mYW1pbHk9InNhbnMtc2VyaWYiIGZvbnQtc2l6ZT0iMTQiIGxlbmd0aEFkanVzdD0ic3BhY2luZyIgdGV4dExlbmd0aD0iMjQwIiB4PSI4ODIuNSIgeT0iOTQwLjA0NjkiPlZhbHVlJmFtcDsgb3BlcmF0b3I9KGNvbnN0IFZhbHVlJmFtcDsgcmhzKTwvdGV4dD48ZWxsaXBzZSBjeD0iODczLjUiIGN5PSI5NTAuNzg5MSIgZmlsbD0iIzg0QkU4NCIgcng9IjMiIHJ5PSIzIiBzdHlsZT0ic3Ryb2tlOiMwMzgwNDg7c3Ryb2tlLXdpZHRoOjEuMDsiLz48dGV4dCBmaWxsPSIjMDAwMDAwIiBmb250LWZhbWlseT0ic2Fucy1zZXJpZiIgZm9udC1zaXplPSIxNCIgbGVuZ3RoQWRqdXN0PSJzcGFjaW5nIiB0ZXh0TGVuZ3RoPSIyMDUiIHg9Ijg4Mi41IiB5PSI5NTUuMDMxMyI+VmFsdWUmYW1wOyBvcGVyYXRvcj0oVmFsdWUmYW1wOyZhbXA7IHJocyk8L3RleHQ+PGVsbGlwc2UgY3g9Ijg3My41IiBjeT0iOTY1Ljc3MzQiIGZpbGw9IiM4NEJFODQiIHJ4PSIzIiByeT0iMyIgc3R5bGU9InN0cm9rZTojMDM4MDQ4O3N0cm9rZS13aWR0aDoxLjA7Ii8+PHRleHQgZmlsbD0iIzAwMDAwMCIgZm9udC1mYW1pbHk9InNhbnMtc2VyaWYiIGZvbnQtc2l6ZT0iMTQiIGxlbmd0aEFkanVzdD0ic3BhY2luZyIgdGV4dExlbmd0aD0iNTgiIHg9Ijg4Mi41IiB5PSI5NzAuMDE1NiI+flZhbHVlKCk8L3RleHQ+PHRleHQgZmlsbD0iIzAwMDAwMCIgZm9udC1mYW1pbHk9InNhbnMtc2VyaWYiIGZvbnQtc2l6ZT0iMTQiIGxlbmd0aEFkanVzdD0ic3BhY2luZyIgdGV4dExlbmd0aD0iNyIgeD0iODgyLjUiIHk9Ijk4NSI+JiMxNjA7PC90ZXh0PjxlbGxpcHNlIGN4PSI4NzMuNSIgY3k9Ijk5NS43NDIyIiBmaWxsPSIjODRCRTg0IiByeD0iMyIgcnk9IjMiIHN0eWxlPSJzdHJva2U6IzAzODA0ODtzdHJva2Utd2lkdGg6MS4wOyIvPjx0ZXh0IGZpbGw9IiMwMDAwMDAiIGZvbnQtZmFtaWx5PSJzYW5zLXNlcmlmIiBmb250LXNpemU9IjE0IiBsZW5ndGhBZGp1c3Q9InNwYWNpbmciIHRleHRMZW5ndGg9IjE3NyIgeD0iODgyLjUiIHk9Ijk5OS45ODQ0Ij5WYWx1ZVR5cGUgZ2V0VHlwZSgpIGNvbnN0PC90ZXh0PjxlbGxpcHNlIGN4PSI4NzMuNSIgY3k9IjEwMTAuNzI2NiIgZmlsbD0iIzg0QkU4NCIgcng9IjMiIHJ5PSIzIiBzdHlsZT0ic3Ryb2tlOiMwMzgwNDg7c3Ryb2tlLXdpZHRoOjEuMDsiLz48dGV4dCBmaWxsPSIjMDAwMDAwIiBmb250LWZhbWlseT0ic2Fucy1zZXJpZiIgZm9udC1zaXplPSIxNCIgbGVuZ3RoQWRqdXN0PSJzcGFjaW5nIiB0ZXh0TGVuZ3RoPSIxNTYiIHg9Ijg4Mi41IiB5PSIxMDE0Ljk2ODgiPnNpemVfdCBnZXRTaXplKCkgY29uc3Q8L3RleHQ+PGVsbGlwc2UgY3g9Ijg3My41IiBjeT0iMTAyNS43MTA5IiBmaWxsPSIjODRCRTg0IiByeD0iMyIgcnk9IjMiIHN0eWxlPSJzdHJva2U6IzAzODA0ODtzdHJva2Utd2lkdGg6MS4wOyIvPjx0ZXh0IGZpbGw9IiMwMDAwMDAiIGZvbnQtZmFtaWx5PSJzYW5zLXNlcmlmIiBmb250LXNpemU9IjE0IiBsZW5ndGhBZGp1c3Q9InNwYWNpbmciIHRleHRMZW5ndGg9IjEzNSIgeD0iODgyLjUiIHk9IjEwMjkuOTUzMSI+Ym9vbCBpc051bGwoKSBjb25zdDwvdGV4dD48ZWxsaXBzZSBjeD0iODczLjUiIGN5PSIxMDQwLjY5NTMiIGZpbGw9IiM4NEJFODQiIHJ4PSIzIiByeT0iMyIgc3R5bGU9InN0cm9rZTojMDM4MDQ4O3N0cm9rZS13aWR0aDoxLjA7Ii8+PHRleHQgZmlsbD0iIzAwMDAwMCIgZm9udC1mYW1pbHk9InNhbnMtc2VyaWYiIGZvbnQtc2l6ZT0iMTQiIGxlbmd0aEFkanVzdD0ic3BhY2luZyIgdGV4dExlbmd0aD0iMTM1IiB4PSI4ODIuNSIgeT0iMTA0NC45Mzc1Ij5ib29sIGlzQm9vbCgpIGNvbnN0PC90ZXh0PjxlbGxpcHNlIGN4PSI4NzMuNSIgY3k9IjEwNTUuNjc5NyIgZmlsbD0iIzg0QkU4NCIgcng9IjMiIHJ5PSIzIiBzdHlsZT0ic3Ryb2tlOiMwMzgwNDg7c3Ryb2tlLXdpZHRoOjEuMDsiLz48dGV4dCBmaWxsPSIjMDAwMDAwIiBmb250LWZhbWlseT0ic2Fucy1zZXJpZiIgZm9udC1zaXplPSIxNCIgbGVuZ3RoQWRqdXN0PSJzcGFjaW5nIiB0ZXh0TGVuZ3RoPSIxNDIiIHg9Ijg4Mi41IiB5PSIxMDU5LjkyMTkiPmJvb2wgaXNJbnQzMigpIGNvbnN0PC90ZXh0PjxlbGxpcHNlIGN4PSI4NzMuNSIgY3k9IjEwNzAuNjY0MSIgZmlsbD0iIzg0QkU4NCIgcng9IjMiIHJ5PSIzIiBzdHlsZT0ic3Ryb2tlOiMwMzgwNDg7c3Ryb2tlLXdpZHRoOjEuMDsiLz48dGV4dCBmaWxsPSIjMDAwMDAwIiBmb250LWZhbWlseT0ic2Fucy1zZXJpZiIgZm9udC1zaXplPSIxNCIgbGVuZ3RoQWRqdXN0PSJzcGFjaW5nIiB0ZXh0TGVuZ3RoPSIxNDIiIHg9Ijg4Mi41IiB5PSIxMDc0LjkwNjMiPmJvb2wgaXNJbnQ2NCgpIGNvbnN0PC90ZXh0PjxlbGxpcHNlIGN4PSI4NzMuNSIgY3k9IjEwODUuNjQ4NCIgZmlsbD0iIzg0QkU4NCIgcng9IjMiIHJ5PSIzIiBzdHlsZT0ic3Ryb2tlOiMwMzgwNDg7c3Ryb2tlLXdpZHRoOjEuMDsiLz48dGV4dCBmaWxsPSIjMDAwMDAwIiBmb250LWZhbWlseT0ic2Fucy1zZXJpZiIgZm9udC1zaXplPSIxNCIgbGVuZ3RoQWRqdXN0PSJzcGFjaW5nIiB0ZXh0TGVuZ3RoPSIxNDkiIHg9Ijg4Mi41IiB5PSIxMDg5Ljg5MDYiPmJvb2wgaXNEb3VibGUoKSBjb25zdDwvdGV4dD48ZWxsaXBzZSBjeD0iODczLjUiIGN5PSIxMTAwLjYzMjgiIGZpbGw9IiM4NEJFODQiIHJ4PSIzIiByeT0iMyIgc3R5bGU9InN0cm9rZTojMDM4MDQ4O3N0cm9rZS13aWR0aDoxLjA7Ii8+PHRleHQgZmlsbD0iIzAwMDAwMCIgZm9udC1mYW1pbHk9InNhbnMtc2VyaWYiIGZvbnQtc2l6ZT0iMTQiIGxlbmd0aEFkanVzdD0ic3BhY2luZyIgdGV4dExlbmd0aD0iMTQ5IiB4PSI4ODIuNSIgeT0iMTEwNC44NzUiPmJvb2wgaXNTdHJpbmcoKSBjb25zdDwvdGV4dD48ZWxsaXBzZSBjeD0iODczLjUiIGN5PSIxMTE1LjYxNzIiIGZpbGw9IiM4NEJFODQiIHJ4PSIzIiByeT0iMyIgc3R5bGU9InN0cm9rZTojMDM4MDQ4O3N0cm9rZS13aWR0aDoxLjA7Ii8+PHRleHQgZmlsbD0iIzAwMDAwMCIgZm9udC1mYW1pbHk9InNhbnMtc2VyaWYiIGZvbnQtc2l6ZT0iMTQiIGxlbmd0aEFkanVzdD0ic3BhY2luZyIgdGV4dExlbmd0aD0iMTQyIiB4PSI4ODIuNSIgeT0iMTExOS44NTk0Ij5ib29sIGlzQXJyYXkoKSBjb25zdDwvdGV4dD48ZWxsaXBzZSBjeD0iODczLjUiIGN5PSIxMTMwLjYwMTYiIGZpbGw9IiM4NEJFODQiIHJ4PSIzIiByeT0iMyIgc3R5bGU9InN0cm9rZTojMDM4MDQ4O3N0cm9rZS13aWR0aDoxLjA7Ii8+PHRleHQgZmlsbD0iIzAwMDAwMCIgZm9udC1mYW1pbHk9InNhbnMtc2VyaWYiIGZvbnQtc2l6ZT0iMTQiIGxlbmd0aEFkanVzdD0ic3BhY2luZyIgdGV4dExlbmd0aD0iMTQ5IiB4PSI4ODIuNSIgeT0iMTEzNC44NDM4Ij5ib29sIGlzT2JqZWN0KCkgY29uc3Q8L3RleHQ+PGVsbGlwc2UgY3g9Ijg3My41IiBjeT0iMTE0NS41ODU5IiBmaWxsPSIjODRCRTg0IiByeD0iMyIgcnk9IjMiIHN0eWxlPSJzdHJva2U6IzAzODA0ODtzdHJva2Utd2lkdGg6MS4wOyIvPjx0ZXh0IGZpbGw9IiMwMDAwMDAiIGZvbnQtZmFtaWx5PSJzYW5zLXNlcmlmIiBmb250LXNpemU9IjE0IiBsZW5ndGhBZGp1c3Q9InNwYWNpbmciIHRleHRMZW5ndGg9IjE0MiIgeD0iODgyLjUiIHk9IjExNDkuODI4MSI+Ym9vbCBnZXRCb29sKCkgY29uc3Q8L3RleHQ+PGVsbGlwc2UgY3g9Ijg3My41IiBjeT0iMTE2MC41NzAzIiBmaWxsPSIjODRCRTg0IiByeD0iMyIgcnk9IjMiIHN0eWxlPSJzdHJva2U6IzAzODA0ODtzdHJva2Utd2lkdGg6MS4wOyIvPjx0ZXh0IGZpbGw9IiMwMDAwMDAiIGZvbnQtZmFtaWx5PSJzYW5zLXNlcmlmIiBmb250LXNpemU9IjE0IiBsZW5ndGhBZGp1c3Q9InNwYWNpbmciIHRleHRMZW5ndGg9IjE3MCIgeD0iODgyLjUiIHk9IjExNjQuODEyNSI+aW50MzJfdCBnZXRJbnQzMigpIGNvbnN0PC90ZXh0PjxlbGxpcHNlIGN4PSI4NzMuNSIgY3k9IjExNzUuNTU0NyIgZmlsbD0iIzg0QkU4NCIgcng9IjMiIHJ5PSIzIiBzdHlsZT0ic3Ryb2tlOiMwMzgwNDg7c3Ryb2tlLXdpZHRoOjEuMDsiLz48dGV4dCBmaWxsPSIjMDAwMDAwIiBmb250LWZhbWlseT0ic2Fucy1zZXJpZiIgZm9udC1zaXplPSIxNCIgbGVuZ3RoQWRqdXN0PSJzcGFjaW5nIiB0ZXh0TGVuZ3RoPSIxNzAiIHg9Ijg4Mi41IiB5PSIxMTc5Ljc5NjkiPmludDY0X3QgZ2V0SW50NjQoKSBjb25zdDwvdGV4dD48ZWxsaXBzZSBjeD0iODczLjUiIGN5PSIxMTkwLjUzOTEiIGZpbGw9IiM4NEJFODQiIHJ4PSIzIiByeT0iMyIgc3R5bGU9InN0cm9rZTojMDM4MDQ4O3N0cm9rZS13aWR0aDoxLjA7Ii8+PHRleHQgZmlsbD0iIzAwMDAwMCIgZm9udC1mYW1pbHk9InNhbnMtc2VyaWYiIGZvbnQtc2l6ZT0iMTQiIGxlbmd0aEFkanVzdD0ic3BhY2luZyIgdGV4dExlbmd0aD0iMTcwIiB4PSI4ODIuNSIgeT0iMTE5NC43ODEzIj5kb3VibGUgZ2V0RG91YmxlKCkgY29uc3Q8L3RleHQ+PGVsbGlwc2UgY3g9Ijg3My41IiBjeT0iMTIwNS41MjM0IiBmaWxsPSIjODRCRTg0IiByeD0iMyIgcnk9IjMiIHN0eWxlPSJzdHJva2U6IzAzODA0ODtzdHJva2Utd2lkdGg6MS4wOyIvPjx0ZXh0IGZpbGw9IiMwMDAwMDAiIGZvbnQtZmFtaWx5PSJzYW5zLXNlcmlmIiBmb250LXNpemU9IjE0IiBsZW5ndGhBZGp1c3Q9InNwYWNpbmciIHRleHRMZW5ndGg9IjIwNSIgeD0iODgyLjUiIHk9IjEyMDkuNzY1NiI+c3RkOjpzdHJpbmcgZ2V0U3RyaW5nKCkgY29uc3Q8L3RleHQ+PGVsbGlwc2UgY3g9Ijg3My41IiBjeT0iMTIyMC41MDc4IiBmaWxsPSIjODRCRTg0IiByeD0iMyIgcnk9IjMiIHN0eWxlPSJzdHJva2U6IzAzODA0ODtzdHJva2Utd2lkdGg6MS4wOyIvPjx0ZXh0IGZpbGw9IiMwMDAwMDAiIGZvbnQtZmFtaWx5PSJzYW5zLXNlcmlmIiBmb250LXNpemU9IjE0IiBsZW5ndGhBZGp1c3Q9InNwYWNpbmciIHRleHRMZW5ndGg9IjI3MCIgeD0iODgyLjUiIHk9IjEyMjQuNzUiPnN0ZDo6c3RyaW5nX3ZpZXcgZ2V0U3RyaW5nVmlldygpIGNvbnN0PC90ZXh0Pjx0ZXh0IGZpbGw9IiMwMDAwMDAiIGZvbnQtZmFtaWx5PSJzYW5zLXNlcmlmIiBmb250LXNpemU9IjE0IiBsZW5ndGhBZGp1c3Q9InNwYWNpbmciIHRleHRMZW5ndGg9IjciIHg9Ijg4Mi41IiB5PSIxMjM5LjczNDQiPiYjMTYwOzwvdGV4dD48ZWxsaXBzZSBjeD0iODczLjUiIGN5PSIxMjUwLjQ3NjYiIGZpbGw9IiM4NEJFODQiIHJ4PSIzIiByeT0iMyIgc3R5bGU9InN0cm9rZTojMDM4MDQ4O3N0cm9rZS13aWR0aDoxLjA7Ii8+PHRleHQgZmlsbD0iIzAwMDAwMCIgZm9udC1mYW1pbHk9InNhbnMtc2VyaWYiIGZvbnQtc2l6ZT0iMTQiIGxlbmd0aEFkanVzdD0ic3BhY2luZyIgdGV4dExlbmd0aD0iMjk3IiB4PSI4ODIuNSIgeT0iMTI1NC43MTg4Ij5WYWx1ZSZhbXA7IG9wZXJhdG9yW10oY29uc3Qgc3RkOjpzdHJpbmdfdmlldyZhbXA7KTwvdGV4dD48ZWxsaXBzZSBjeD0iODczLjUiIGN5PSIxMjY1LjQ2MDkiIGZpbGw9IiM4NEJFODQiIHJ4PSIzIiByeT0iMyIgc3R5bGU9InN0cm9rZTojMDM4MDQ4O3N0cm9rZS13aWR0aDoxLjA7Ii8+PHRleHQgZmlsbD0iIzAwMDAwMCIgZm9udC1mYW1pbHk9InNhbnMtc2VyaWYiIGZvbnQtc2l6ZT0iMTQiIGxlbmd0aEFkanVzdD0ic3BhY2luZyIgdGV4dExlbmd0aD0iMzgxIiB4PSI4ODIuNSIgeT0iMTI2OS43MDMxIj5jb25zdCBWYWx1ZSZhbXA7IG9wZXJhdG9yW10oY29uc3Qgc3RkOjpzdHJpbmdfdmlldyZhbXA7KSBjb25zdDwvdGV4dD48ZWxsaXBzZSBjeD0iODczLjUiIGN5PSIxMjgwLjQ0NTMiIGZpbGw9IiM4NEJFODQiIHJ4PSIzIiByeT0iMyIgc3R5bGU9InN0cm9rZTojMDM4MDQ4O3N0cm9rZS13aWR0aDoxLjA7Ii8+PHRleHQgZmlsbD0iIzAwMDAwMCIgZm9udC1mYW1pbHk9InNhbnMtc2VyaWYiIGZvbnQtc2l6ZT0iMTQiIGxlbmd0aEFkanVzdD0ic3BhY2luZyIgdGV4dExlbmd0aD0iMTkxIiB4PSI4ODIuNSIgeT0iMTI4NC42ODc1Ij5WYWx1ZSZhbXA7IG9wZXJhdG9yW10oc2l6ZV90IGkpPC90ZXh0PjxlbGxpcHNlIGN4PSI4NzMuNSIgY3k9IjEyOTUuNDI5NyIgZmlsbD0iIzg0QkU4NCIgcng9IjMiIHJ5PSIzIiBzdHlsZT0ic3Ryb2tlOiMwMzgwNDg7c3Ryb2tlLXdpZHRoOjEuMDsiLz48dGV4dCBmaWxsPSIjMDAwMDAwIiBmb250LWZhbWlseT0ic2Fucy1zZXJpZiIgZm9udC1zaXplPSIxNCIgbGVuZ3RoQWRqdXN0PSJzcGFjaW5nIiB0ZXh0TGVuZ3RoPSIyNzUiIHg9Ijg4Mi41IiB5PSIxMjk5LjY3MTkiPmNvbnN0IFZhbHVlJmFtcDsgb3BlcmF0b3JbXShzaXplX3QgaSkgY29uc3Q8L3RleHQ+PHRleHQgZmlsbD0iIzAwMDAwMCIgZm9udC1mYW1pbHk9InNhbnMtc2VyaWYiIGZvbnQtc2l6ZT0iMTQiIGxlbmd0aEFkanVzdD0ic3BhY2luZyIgdGV4dExlbmd0aD0iNyIgeD0iODgyLjUiIHk9IjEzMTQuNjU2MyI+JiMxNjA7PC90ZXh0PjxlbGxpcHNlIGN4PSI4NzMuNSIgY3k9IjEzMjUuMzk4NCIgZmlsbD0iIzg0QkU4NCIgcng9IjMiIHJ5PSIzIiBzdHlsZT0ic3Ryb2tlOiMwMzgwNDg7c3Ryb2tlLXdpZHRoOjEuMDsiLz48dGV4dCBmaWxsPSIjMDAwMDAwIiBmb250LWZhbWlseT0ic2Fucy1zZXJpZiIgZm9udC1zaXplPSIxNCIgbGVuZ3RoQWRqdXN0PSJzcGFjaW5nIiB0ZXh0TGVuZ3RoPSIzMTEiIHg9Ijg4Mi41IiB5PSIxMzI5LjY0MDYiPlZhbHVlJmFtcDsgYWRkTWVtYmVyKFZhbHVlJmFtcDsmYW1wOyBrZXksIFZhbHVlJmFtcDsmYW1wOyB2YWx1ZSk8L3RleHQ+PGVsbGlwc2UgY3g9Ijg3My41IiBjeT0iMTM0MC4zODI4IiBmaWxsPSIjODRCRTg0IiByeD0iMyIgcnk9IjMiIHN0eWxlPSJzdHJva2U6IzAzODA0ODtzdHJva2Utd2lkdGg6MS4wOyIvPjx0ZXh0IGZpbGw9IiMwMDAwMDAiIGZvbnQtZmFtaWx5PSJzYW5zLXNlcmlmIiBmb250LXNpemU9IjE0IiBsZW5ndGhBZGp1c3Q9InNwYWNpbmciIHRleHRMZW5ndGg9IjM5NyIgeD0iODgyLjUiIHk9IjEzNDQuNjI1Ij50ZW1wbGF0ZSAmbHQ7dHlwZW5hbWUgSGFuZGxlciZndDsgYm9vbCB3cml0ZVRvKEhhbmRsZXImYW1wOykgY29uc3Q8L3RleHQ+PC9nPjwhLS1jbGFzcyBTdHJpbmdSZWFkU3RyZWFtLS0+PGcgaWQ9ImVsZW1fU3RyaW5nUmVhZFN0cmVhbSI+PHJlY3QgY29kZUxpbmU9IjE0OCIgZmlsbD0iI0YxRjFGMSIgaGVpZ2h0PSI3Ny45Njg4IiBpZD0iU3RyaW5nUmVhZFN0cmVhbSIgcng9IjIuNSIgcnk9IjIuNSIgc3R5bGU9InN0cm9rZTojMTgxODE4O3N0cm9rZS13aWR0aDowLjU7IiB3aWR0aD0iMjIzIiB4PSI1NTAuNSIgeT0iMTQwIi8+PGVsbGlwc2UgY3g9IjYwMS4yNSIgY3k9IjE1NiIgZmlsbD0iI0FERDFCMiIgcng9IjExIiByeT0iMTEiIHN0eWxlPSJzdHJva2U6IzE4MTgxODtzdHJva2Utd2lkdGg6MS4wOyIvPjxwYXRoIGQ9Ik01OTguODc1LDE2MC4yNSBMNTk4Ljg3NSwxNjIgTDYwMy44MTI1LDE2MiBMNjAzLjgxMjUsMTYwLjI1IEw1OTguODc1LDE2MC4yNSBaIE01OTkuNTYyNSwxNjAuOTM3NSBRNTk5LjU2MjUsMTYwLjkzNzUgNTk5LjU2MjUsMTUxLjc1IEw1OTcuODEyNSwxNTEuNzUgUTU5Ny44MTI1LDE1MS43NSA1OTcuODEyNSwxNjAuOTM3NSBMNTk5LjU2MjUsMTYwLjkzNzUgWiBNNjAzLjEyNSwxNjAuOTM3NSBMNjA0Ljg3NSwxNjAuOTM3NSBRNjA0Ljg3NSwxNjAuOTM3NSA2MDQuODc1LDE1OC4xMjUgTDYwMy4xMjUsMTU4LjEyNSBRNjAzLjEyNSwxNTguMTI1IDYwMy4xMjUsMTYwLjkzNzUgWiBNNjAzLjEyNSwxNTEuNzUgUTYwMy4xMjUsMTUxLjc1IDYwMy4xMjUsMTU0LjU2MjUgTDYwNC44NzUsMTU0LjU2MjUgUTYwNC44NzUsMTU0LjU2MjUgNjA0Ljg3NSwxNTEuNzUgTDYwMy4xMjUsMTUxLjc1IFogTTU5OC44NzUsMTUyLjQzNzUgTDYwMy44MTI1LDE1Mi40Mzc1IEw2MDMuODEyNSwxNTAuNjg3NSBMNTk4Ljg3NSwxNTAuNjg3NSBMNTk4Ljg3NSwxNTIuNDM3NSBaICIgZmlsbD0iIzAwMDAwMCIvPjx0ZXh0IGZpbGw9IiMwMDAwMDAiIGZvbnQtZmFtaWx5PSJzYW5zLXNlcmlmIiBmb250LXNpemU9IjE0IiBsZW5ndGhBZGp1c3Q9InNwYWNpbmciIHRleHRMZW5ndGg9IjExMyIgeD0iNjIxLjc1IiB5PSIxNjEuNzQyMiI+U3RyaW5nUmVhZFN0cmVhbTwvdGV4dD48bGluZSBzdHlsZT0ic3Ryb2tlOiMxODE4MTg7c3Ryb2tlLXdpZHRoOjAuNTsiIHgxPSI1NTEuNSIgeDI9Ijc3Mi41IiB5MT0iMTcyIiB5Mj0iMTcyIi8+PHJlY3QgZmlsbD0ibm9uZSIgaGVpZ2h0PSI2IiBzdHlsZT0ic3Ryb2tlOiNDODI5MzA7c3Ryb2tlLXdpZHRoOjEuMDsiIHdpZHRoPSI2IiB4PSI1NTguNSIgeT0iMTgxLjk5MjIiLz48dGV4dCBmaWxsPSIjMDAwMDAwIiBmb250LWZhbWlseT0ic2Fucy1zZXJpZiIgZm9udC1zaXplPSIxNCIgbGVuZ3RoQWRqdXN0PSJzcGFjaW5nIiB0ZXh0TGVuZ3RoPSIxOTciIHg9IjU3MC41IiB5PSIxODkuMjM0NCI+Y29uc3Qgc3RkOjpzdHJpbmdfdmlldyBqc29uXzwvdGV4dD48cmVjdCBmaWxsPSJub25lIiBoZWlnaHQ9IjYiIHN0eWxlPSJzdHJva2U6I0M4MjkzMDtzdHJva2Utd2lkdGg6MS4wOyIgd2lkdGg9IjYiIHg9IjU1OC41IiB5PSIxOTYuOTc2NiIvPjx0ZXh0IGZpbGw9IiMwMDAwMDAiIGZvbnQtZmFtaWx5PSJzYW5zLXNlcmlmIiBmb250LXNpemU9IjE0IiBsZW5ndGhBZGp1c3Q9InNwYWNpbmciIHRleHRMZW5ndGg9IjEzMyIgeD0iNTcwLjUiIHk9IjIwNC4yMTg4Ij5Db25zdEl0ZXJhdG9yIGl0ZXJfPC90ZXh0PjxsaW5lIHN0eWxlPSJzdHJva2U6IzE4MTgxODtzdHJva2Utd2lkdGg6MC41OyIgeDE9IjU1MS41IiB4Mj0iNzcyLjUiIHkxPSIyMDkuOTY4OCIgeTI9IjIwOS45Njg4Ii8+PC9nPjwhLS1jbGFzcyBTdHJpbmdXcml0ZVN0cmVhbS0tPjxnIGlkPSJlbGVtX1N0cmluZ1dyaXRlU3RyZWFtIj48cmVjdCBjb2RlTGluZT0iMTY1IiBmaWxsPSIjRjFGMUYxIiBoZWlnaHQ9IjYyLjk4NDQiIGlkPSJTdHJpbmdXcml0ZVN0cmVhbSIgcng9IjIuNSIgcnk9IjIuNSIgc3R5bGU9InN0cm9rZTojMTgxODE4O3N0cm9rZS13aWR0aDowLjU7IiB3aWR0aD0iMjAxIiB4PSI0Ni41IiB5PSIxNDcuNSIvPjxlbGxpcHNlIGN4PSI4My41NSIgY3k9IjE2My41IiBmaWxsPSIjQUREMUIyIiByeD0iMTEiIHJ5PSIxMSIgc3R5bGU9InN0cm9rZTojMTgxODE4O3N0cm9rZS13aWR0aDoxLjA7Ii8+PHBhdGggZD0iTTgxLjE3NSwxNjcuNzUgTDgxLjE3NSwxNjkuNSBMODYuMTEyNSwxNjkuNSBMODYuMTEyNSwxNjcuNzUgTDgxLjE3NSwxNjcuNzUgWiBNODEuODYyNSwxNjguNDM3NSBRODEuODYyNSwxNjguNDM3NSA4MS44NjI1LDE1OS4yNSBMODAuMTEyNSwxNTkuMjUgUTgwLjExMjUsMTU5LjI1IDgwLjExMjUsMTY4LjQzNzUgTDgxLjg2MjUsMTY4LjQzNzUgWiBNODUuNDI1LDE2OC40Mzc1IEw4Ny4xNzUsMTY4LjQzNzUgUTg3LjE3NSwxNjguNDM3NSA4Ny4xNzUsMTY1LjYyNSBMODUuNDI1LDE2NS42MjUgUTg1LjQyNSwxNjUuNjI1IDg1LjQyNSwxNjguNDM3NSBaIE04NS40MjUsMTU5LjI1IFE4NS40MjUsMTU5LjI1IDg1LjQyNSwxNjIuMDYyNSBMODcuMTc1LDE2Mi4wNjI1IFE4Ny4xNzUsMTYyLjA2MjUgODcuMTc1LDE1OS4yNSBMODUuNDI1LDE1OS4yNSBaIE04MS4xNzUsMTU5LjkzNzUgTDg2LjExMjUsMTU5LjkzNzUgTDg2LjExMjUsMTU4LjE4NzUgTDgxLjE3NSwxNTguMTg3NSBMODEuMTc1LDE1OS45Mzc1IFogIiBmaWxsPSIjMDAwMDAwIi8+PHRleHQgZmlsbD0iIzAwMDAwMCIgZm9udC1mYW1pbHk9InNhbnMtc2VyaWYiIGZvbnQtc2l6ZT0iMTQiIGxlbmd0aEFkanVzdD0ic3BhY2luZyIgdGV4dExlbmd0aD0iMTIwIiB4PSIxMDIuNDUiIHk9IjE2OS4yNDIyIj5TdHJpbmdXcml0ZVN0cmVhbTwvdGV4dD48bGluZSBzdHlsZT0ic3Ryb2tlOiMxODE4MTg7c3Ryb2tlLXdpZHRoOjAuNTsiIHgxPSI0Ny41IiB4Mj0iMjQ2LjUiIHkxPSIxNzkuNSIgeTI9IjE3OS41Ii8+PHJlY3QgZmlsbD0ibm9uZSIgaGVpZ2h0PSI2IiBzdHlsZT0ic3Ryb2tlOiNDODI5MzA7c3Ryb2tlLXdpZHRoOjEuMDsiIHdpZHRoPSI2IiB4PSI1NC41IiB5PSIxODkuNDkyMiIvPjx0ZXh0IGZpbGw9IiMwMDAwMDAiIGZvbnQtZmFtaWx5PSJzYW5zLXNlcmlmIiBmb250LXNpemU9IjE0IiBsZW5ndGhBZGp1c3Q9InNwYWNpbmciIHRleHRMZW5ndGg9IjE3NSIgeD0iNjYuNSIgeT0iMTk2LjczNDQiPnN0ZDo6dmVjdG9yJmx0O2NoYXImZ3Q7IGJ1ZmZlcl88L3RleHQ+PGxpbmUgc3R5bGU9InN0cm9rZTojMTgxODE4O3N0cm9rZS13aWR0aDowLjU7IiB4MT0iNDcuNSIgeDI9IjI0Ni41IiB5MT0iMjAyLjQ4NDQiIHkyPSIyMDIuNDg0NCIvPjwvZz48IS0tY2xhc3MgV3JpdGVyLS0+PGcgaWQ9ImVsZW1fV3JpdGVyIj48cmVjdCBjb2RlTGluZT0iMTc4IiBmaWxsPSIjRjFGMUYxIiBoZWlnaHQ9IjEwNy45Mzc1IiBpZD0iV3JpdGVyIiByeD0iMi41IiByeT0iMi41IiBzdHlsZT0ic3Ryb2tlOiMxODE4MTg7c3Ryb2tlLXdpZHRoOjAuNTsiIHdpZHRoPSIyMDEiIHg9IjI0My41IiB5PSI0OTcuNSIvPjxlbGxpcHNlIGN4PSIzMTguNzUiIGN5PSI1MTMuNSIgZmlsbD0iI0FERDFCMiIgcng9IjExIiByeT0iMTEiIHN0eWxlPSJzdHJva2U6IzE4MTgxODtzdHJva2Utd2lkdGg6MS4wOyIvPjxwYXRoIGQ9Ik0zMTYuMzc1LDUxNy43NSBMMzE2LjM3NSw1MTkuNSBMMzIxLjMxMjUsNTE5LjUgTDMyMS4zMTI1LDUxNy43NSBMMzE2LjM3NSw1MTcuNzUgWiBNMzE3LjA2MjUsNTE4LjQzNzUgUTMxNy4wNjI1LDUxOC40Mzc1IDMxNy4wNjI1LDUwOS4yNSBMMzE1LjMxMjUsNTA5LjI1IFEzMTUuMzEyNSw1MDkuMjUgMzE1LjMxMjUsNTE4LjQzNzUgTDMxNy4wNjI1LDUxOC40Mzc1IFogTTMyMC42MjUsNTE4LjQzNzUgTDMyMi4zNzUsNTE4LjQzNzUgUTMyMi4zNzUsNTE4LjQzNzUgMzIyLjM3NSw1MTUuNjI1IEwzMjAuNjI1LDUxNS42MjUgUTMyMC42MjUsNTE1LjYyNSAzMjAuNjI1LDUxOC40Mzc1IFogTTMyMC42MjUsNTA5LjI1IFEzMjAuNjI1LDUwOS4yNSAzMjAuNjI1LDUxMi4wNjI1IEwzMjIuMzc1LDUxMi4wNjI1IFEzMjIuMzc1LDUxMi4wNjI1IDMyMi4zNzUsNTA5LjI1IEwzMjAuNjI1LDUwOS4yNSBaIE0zMTYuMzc1LDUwOS45Mzc1IEwzMjEuMzEyNSw1MDkuOTM3NSBMMzIxLjMxMjUsNTA4LjE4NzUgTDMxNi4zNzUsNTA4LjE4NzUgTDMxNi4zNzUsNTA5LjkzNzUgWiAiIGZpbGw9IiMwMDAwMDAiLz48dGV4dCBmaWxsPSIjMDAwMDAwIiBmb250LWZhbWlseT0ic2Fucy1zZXJpZiIgZm9udC1zaXplPSIxNCIgbGVuZ3RoQWRqdXN0PSJzcGFjaW5nIiB0ZXh0TGVuZ3RoPSI0MiIgeD0iMzM5LjI1IiB5PSI1MTkuMjQyMiI+V3JpdGVyPC90ZXh0PjxsaW5lIHN0eWxlPSJzdHJva2U6IzE4MTgxODtzdHJva2Utd2lkdGg6MC41OyIgeDE9IjI0NC41IiB4Mj0iNDQzLjUiIHkxPSI1MjkuNSIgeTI9IjUyOS41Ii8+PHJlY3QgZmlsbD0ibm9uZSIgaGVpZ2h0PSI2IiBzdHlsZT0ic3Ryb2tlOiNDODI5MzA7c3Ryb2tlLXdpZHRoOjEuMDsiIHdpZHRoPSI2IiB4PSIyNTEuNSIgeT0iNTM5LjQ5MjIiLz48dGV4dCBmaWxsPSIjMDAwMDAwIiBmb250LWZhbWlseT0ic2Fucy1zZXJpZiIgZm9udC1zaXplPSIxNCIgbGVuZ3RoQWRqdXN0PSJzcGFjaW5nIiB0ZXh0TGVuZ3RoPSIxNzUiIHg9IjI2My41IiB5PSI1NDYuNzM0NCI+c3RkOjp2ZWN0b3ImbHQ7TGV2ZWwmZ3Q7IHN0YWNrXzwvdGV4dD48cmVjdCBmaWxsPSJub25lIiBoZWlnaHQ9IjYiIHN0eWxlPSJzdHJva2U6I0M4MjkzMDtzdHJva2Utd2lkdGg6MS4wOyIgd2lkdGg9IjYiIHg9IjI1MS41IiB5PSI1NTQuNDc2NiIvPjx0ZXh0IGZpbGw9IiMwMDAwMDAiIGZvbnQtZmFtaWx5PSJzYW5zLXNlcmlmIiBmb250LXNpemU9IjE0IiBsZW5ndGhBZGp1c3Q9InNwYWNpbmciIHRleHRMZW5ndGg9IjExMyIgeD0iMjYzLjUiIHk9IjU2MS43MTg4Ij5Xcml0ZVN0cmVhbSZhbXA7IG9zXzwvdGV4dD48cmVjdCBmaWxsPSJub25lIiBoZWlnaHQ9IjYiIHN0eWxlPSJzdHJva2U6I0M4MjkzMDtzdHJva2Utd2lkdGg6MS4wOyIgd2lkdGg9IjYiIHg9IjI1MS41IiB5PSI1NjkuNDYwOSIvPjx0ZXh0IGZpbGw9IiMwMDAwMDAiIGZvbnQtZmFtaWx5PSJzYW5zLXNlcmlmIiBmb250LXNpemU9IjE0IiBsZW5ndGhBZGp1c3Q9InNwYWNpbmciIHRleHRMZW5ndGg9Ijk4IiB4PSIyNjMuNSIgeT0iNTc2LjcwMzEiPmJvb2wgc2VlVmFsdWVfPC90ZXh0PjxsaW5lIHN0eWxlPSJzdHJva2U6IzE4MTgxODtzdHJva2Utd2lkdGg6MC41OyIgeDE9IjI0NC41IiB4Mj0iNDQzLjUiIHkxPSI1ODIuNDUzMSIgeTI9IjU4Mi40NTMxIi8+PGVsbGlwc2UgY3g9IjI1NC41IiBjeT0iNTk1LjQ0NTMiIGZpbGw9IiM4NEJFODQiIHJ4PSIzIiByeT0iMyIgc3R5bGU9InN0cm9rZTojMDM4MDQ4O3N0cm9rZS13aWR0aDoxLjA7Ii8+PHRleHQgZmlsbD0iIzAwMDAwMCIgZm9udC1mYW1pbHk9InNhbnMtc2VyaWYiIGZvbnQtc2l6ZT0iMTQiIGxlbmd0aEFkanVzdD0ic3BhY2luZyIgdGV4dExlbmd0aD0iMTY0IiB4PSIyNjMuNSIgeT0iNTk5LjY4NzUiPldyaXRlcihXcml0ZVN0cmVhbSZhbXA7IG9zKTwvdGV4dD48L2c+PCEtLWNsYXNzIFJlYWRlci0tPjxnIGlkPSJlbGVtX1JlYWRlciI+PHJlY3QgY29kZUxpbmU9IjIwNSIgZmlsbD0iI0YxRjFGMSIgaGVpZ2h0PSIxODIuODU5NCIgaWQ9IlJlYWRlciIgcng9IjIuNSIgcnk9IjIuNSIgc3R5bGU9InN0cm9rZTojMTgxODE4O3N0cm9rZS13aWR0aDowLjU7IiB3aWR0aD0iNjk0IiB4PSI0NzkiIHk9IjQ2MCIvPjxlbGxpcHNlIGN4PSI4MDAuNzUiIGN5PSI0NzYiIGZpbGw9IiNBREQxQjIiIHJ4PSIxMSIgcnk9IjExIiBzdHlsZT0ic3Ryb2tlOiMxODE4MTg7c3Ryb2tlLXdpZHRoOjEuMDsiLz48cGF0aCBkPSJNNzk4LjM3NSw0ODAuMjUgTDc5OC4zNzUsNDgyIEw4MDMuMzEyNSw0ODIgTDgwMy4zMTI1LDQ4MC4yNSBMNzk4LjM3NSw0ODAuMjUgWiBNNzk5LjA2MjUsNDgwLjkzNzUgUTc5OS4wNjI1LDQ4MC45Mzc1IDc5OS4wNjI1LDQ3MS43NSBMNzk3LjMxMjUsNDcxLjc1IFE3OTcuMzEyNSw0NzEuNzUgNzk3LjMxMjUsNDgwLjkzNzUgTDc5OS4wNjI1LDQ4MC45Mzc1IFogTTgwMi42MjUsNDgwLjkzNzUgTDgwNC4zNzUsNDgwLjkzNzUgUTgwNC4zNzUsNDgwLjkzNzUgODA0LjM3NSw0NzguMTI1IEw4MDIuNjI1LDQ3OC4xMjUgUTgwMi42MjUsNDc4LjEyNSA4MDIuNjI1LDQ4MC45Mzc1IFogTTgwMi42MjUsNDcxLjc1IFE4MDIuNjI1LDQ3MS43NSA4MDIuNjI1LDQ3NC41NjI1IEw4MDQuMzc1LDQ3NC41NjI1IFE4MDQuMzc1LDQ3NC41NjI1IDgwNC4zNzUsNDcxLjc1IEw4MDIuNjI1LDQ3MS43NSBaIE03OTguMzc1LDQ3Mi40Mzc1IEw4MDMuMzEyNSw0NzIuNDM3NSBMODAzLjMxMjUsNDcwLjY4NzUgTDc5OC4zNzUsNDcwLjY4NzUgTDc5OC4zNzUsNDcyLjQzNzUgWiAiIGZpbGw9IiMwMDAwMDAiLz48dGV4dCBmaWxsPSIjMDAwMDAwIiBmb250LWZhbWlseT0ic2Fucy1zZXJpZiIgZm9udC1zaXplPSIxNCIgbGVuZ3RoQWRqdXN0PSJzcGFjaW5nIiB0ZXh0TGVuZ3RoPSI0MiIgeD0iODIxLjI1IiB5PSI0ODEuNzQyMiI+UmVhZGVyPC90ZXh0PjxsaW5lIHN0eWxlPSJzdHJva2U6IzE4MTgxODtzdHJva2Utd2lkdGg6MC41OyIgeDE9IjQ4MCIgeDI9IjExNzIiIHkxPSI0OTIiIHkyPSI0OTIiLz48bGluZSBzdHlsZT0ic3Ryb2tlOiMxODE4MTg7c3Ryb2tlLXdpZHRoOjAuNTsiIHgxPSI0ODAiIHgyPSIxMTcyIiB5MT0iNTAwIiB5Mj0iNTAwIi8+PGVsbGlwc2UgY3g9IjQ5MCIgY3k9IjUxMi45OTIyIiBmaWxsPSIjODRCRTg0IiByeD0iMyIgcnk9IjMiIHN0eWxlPSJzdHJva2U6IzAzODA0ODtzdHJva2Utd2lkdGg6MS4wOyIvPjx0ZXh0IGZpbGw9IiMwMDAwMDAiIGZvbnQtZmFtaWx5PSJzYW5zLXNlcmlmIiBmb250LXNpemU9IjE0IiBsZW5ndGhBZGp1c3Q9InNwYWNpbmciIHRleHRMZW5ndGg9IjQ4NiIgeD0iNDk5IiB5PSI1MTcuMjM0NCI+c3RhdGljIFBhcnNlRXJyb3IgcGFyc2UoUmVhZFN0cmVhbSZhbXA7IGlzLCBIYW5kbGVyJmFtcDsgaGFuZGxlcik6IFBhcnNlRXJyb3I8L3RleHQ+PHJlY3QgZmlsbD0iI0YyNEQ1QyIgaGVpZ2h0PSI2IiBzdHlsZT0ic3Ryb2tlOiNDODI5MzA7c3Ryb2tlLXdpZHRoOjEuMDsiIHdpZHRoPSI2IiB4PSI0ODciIHk9IjUyNC45NzY2Ii8+PHRleHQgZmlsbD0iIzAwMDAwMCIgZm9udC1mYW1pbHk9InNhbnMtc2VyaWYiIGZvbnQtc2l6ZT0iMTQiIGxlbmd0aEFkanVzdD0ic3BhY2luZyIgdGV4dExlbmd0aD0iMzYwIiB4PSI0OTkiIHk9IjUzMi4yMTg4Ij5zdGF0aWMgdW5zaWduZWQgcGFyc2VIZXg0KFJlYWRTdHJlYW0mYW1wOyBpcyk6IHVuc2lnbmVkPC90ZXh0PjxyZWN0IGZpbGw9IiNGMjRENUMiIGhlaWdodD0iNiIgc3R5bGU9InN0cm9rZTojQzgyOTMwO3N0cm9rZS13aWR0aDoxLjA7IiB3aWR0aD0iNiIgeD0iNDg3IiB5PSI1MzkuOTYwOSIvPjx0ZXh0IGZpbGw9IiMwMDAwMDAiIGZvbnQtZmFtaWx5PSJzYW5zLXNlcmlmIiBmb250LXNpemU9IjE0IiBsZW5ndGhBZGp1c3Q9InNwYWNpbmciIHRleHRMZW5ndGg9IjMwNCIgeD0iNDk5IiB5PSI1NDcuMjAzMSI+c3RhdGljIHZvaWQgcGFyc2VXaGl0ZVNwYWNlKFJlYWRTdHJlYW0mYW1wOyBpcyk8L3RleHQ+PHJlY3QgZmlsbD0iI0YyNEQ1QyIgaGVpZ2h0PSI2IiBzdHlsZT0ic3Ryb2tlOiNDODI5MzA7c3Ryb2tlLXdpZHRoOjEuMDsiIHdpZHRoPSI2IiB4PSI0ODciIHk9IjU1NC45NDUzIi8+PHRleHQgZmlsbD0iIzAwMDAwMCIgZm9udC1mYW1pbHk9InNhbnMtc2VyaWYiIGZvbnQtc2l6ZT0iMTQiIGxlbmd0aEFkanVzdD0ic3BhY2luZyIgdGV4dExlbmd0aD0iNjY4IiB4PSI0OTkiIHk9IjU2Mi4xODc1Ij5zdGF0aWMgdm9pZCBwYXJzZUxpdGVyYWwoUmVhZFN0cmVhbSZhbXA7IGlzLCBIYW5kbGVyJmFtcDsgaGFuZGxlciwgY29uc3QgY2hhciogbGl0ZXJhbCwgVmFsdWVUeXBlIHR5cGUpPC90ZXh0PjxyZWN0IGZpbGw9IiNGMjRENUMiIGhlaWdodD0iNiIgc3R5bGU9InN0cm9rZTojQzgyOTMwO3N0cm9rZS13aWR0aDoxLjA7IiB3aWR0aD0iNiIgeD0iNDg3IiB5PSI1NjkuOTI5NyIvPjx0ZXh0IGZpbGw9IiMwMDAwMDAiIGZvbnQtZmFtaWx5PSJzYW5zLXNlcmlmIiBmb250LXNpemU9IjE0IiBsZW5ndGhBZGp1c3Q9InNwYWNpbmciIHRleHRMZW5ndGg9IjQwMyIgeD0iNDk5IiB5PSI1NzcuMTcxOSI+c3RhdGljIHZvaWQgcGFyc2VOdW1iZXIoUmVhZFN0cmVhbSZhbXA7IGlzLCBIYW5kbGVyJmFtcDsgaGFuZGxlcik8L3RleHQ+PHJlY3QgZmlsbD0iI0YyNEQ1QyIgaGVpZ2h0PSI2IiBzdHlsZT0ic3Ryb2tlOiNDODI5MzA7c3Ryb2tlLXdpZHRoOjEuMDsiIHdpZHRoPSI2IiB4PSI0ODciIHk9IjU4NC45MTQxIi8+PHRleHQgZmlsbD0iIzAwMDAwMCIgZm9udC1mYW1pbHk9InNhbnMtc2VyaWYiIGZvbnQtc2l6ZT0iMTQiIGxlbmd0aEFkanVzdD0ic3BhY2luZyIgdGV4dExlbmd0aD0iNDg2IiB4PSI0OTkiIHk9IjU5Mi4xNTYzIj5zdGF0aWMgdm9pZCBwYXJzZVN0cmluZyhSZWFkU3RyZWFtJmFtcDsgaXMsIEhhbmRsZXImYW1wOyBoYW5kbGVyLCBib29sIGlzS2V5KTwvdGV4dD48cmVjdCBmaWxsPSIjRjI0RDVDIiBoZWlnaHQ9IjYiIHN0eWxlPSJzdHJva2U6I0M4MjkzMDtzdHJva2Utd2lkdGg6MS4wOyIgd2lkdGg9IjYiIHg9IjQ4NyIgeT0iNTk5Ljg5ODQiLz48dGV4dCBmaWxsPSIjMDAwMDAwIiBmb250LWZhbWlseT0ic2Fucy1zZXJpZiIgZm9udC1zaXplPSIxNCIgbGVuZ3RoQWRqdXN0PSJzcGFjaW5nIiB0ZXh0TGVuZ3RoPSIzOTUiIHg9IjQ5OSIgeT0iNjA3LjE0MDYiPnN0YXRpYyB2b2lkIHBhcnNlQXJyYXkoUmVhZFN0cmVhbSZhbXA7IGlzLCBIYW5kbGVyJmFtcDsgaGFuZGxlcik8L3RleHQ+PHJlY3QgZmlsbD0iI0YyNEQ1QyIgaGVpZ2h0PSI2IiBzdHlsZT0ic3Ryb2tlOiNDODI5MzA7c3Ryb2tlLXdpZHRoOjEuMDsiIHdpZHRoPSI2IiB4PSI0ODciIHk9IjYxNC44ODI4Ii8+PHRleHQgZmlsbD0iIzAwMDAwMCIgZm9udC1mYW1pbHk9InNhbnMtc2VyaWYiIGZvbnQtc2l6ZT0iMTQiIGxlbmd0aEFkanVzdD0ic3BhY2luZyIgdGV4dExlbmd0aD0iNDAyIiB4PSI0OTkiIHk9IjYyMi4xMjUiPnN0YXRpYyB2b2lkIHBhcnNlT2JqZWN0KFJlYWRTdHJlYW0mYW1wOyBpcywgSGFuZGxlciZhbXA7IGhhbmRsZXIpPC90ZXh0PjxyZWN0IGZpbGw9IiNGMjRENUMiIGhlaWdodD0iNiIgc3R5bGU9InN0cm9rZTojQzgyOTMwO3N0cm9rZS13aWR0aDoxLjA7IiB3aWR0aD0iNiIgeD0iNDg3IiB5PSI2MjkuODY3MiIvPjx0ZXh0IGZpbGw9IiMwMDAwMDAiIGZvbnQtZmFtaWx5PSJzYW5zLXNlcmlmIiBmb250LXNpemU9IjE0IiBsZW5ndGhBZGp1c3Q9InNwYWNpbmciIHRleHRMZW5ndGg9IjM5NSIgeD0iNDk5IiB5PSI2MzcuMTA5NCI+c3RhdGljIHZvaWQgcGFyc2VWYWx1ZShSZWFkU3RyZWFtJmFtcDsgaXMsIEhhbmRsZXImYW1wOyBoYW5kbGVyKTwvdGV4dD48L2c+PCEtLWNsYXNzIERvY3VtZW50LS0+PGcgaWQ9ImVsZW1fRG9jdW1lbnQiPjxyZWN0IGNvZGVMaW5lPSIyMjgiIGZpbGw9IiNGMUYxRjEiIGhlaWdodD0iMTM3LjkwNjMiIGlkPSJEb2N1bWVudCIgcng9IjIuNSIgcnk9IjIuNSIgc3R5bGU9InN0cm9rZTojMTgxODE4O3N0cm9rZS13aWR0aDowLjU7IiB3aWR0aD0iNDM1IiB4PSI4NTYuNSIgeT0iMTQ3MSIvPjxlbGxpcHNlIGN4PSIxMDQxLjI1IiBjeT0iMTQ4NyIgZmlsbD0iI0FERDFCMiIgcng9IjExIiByeT0iMTEiIHN0eWxlPSJzdHJva2U6IzE4MTgxODtzdHJva2Utd2lkdGg6MS4wOyIvPjxwYXRoIGQ9Ik0xMDM4Ljg3NSwxNDkxLjI1IEwxMDM4Ljg3NSwxNDkzIEwxMDQzLjgxMjUsMTQ5MyBMMTA0My44MTI1LDE0OTEuMjUgTDEwMzguODc1LDE0OTEuMjUgWiBNMTAzOS41NjI1LDE0OTEuOTM3NSBRMTAzOS41NjI1LDE0OTEuOTM3NSAxMDM5LjU2MjUsMTQ4Mi43NSBMMTAzNy44MTI1LDE0ODIuNzUgUTEwMzcuODEyNSwxNDgyLjc1IDEwMzcuODEyNSwxNDkxLjkzNzUgTDEwMzkuNTYyNSwxNDkxLjkzNzUgWiBNMTA0My4xMjUsMTQ5MS45Mzc1IEwxMDQ0Ljg3NSwxNDkxLjkzNzUgUTEwNDQuODc1LDE0OTEuOTM3NSAxMDQ0Ljg3NSwxNDg5LjEyNSBMMTA0My4xMjUsMTQ4OS4xMjUgUTEwNDMuMTI1LDE0ODkuMTI1IDEwNDMuMTI1LDE0OTEuOTM3NSBaIE0xMDQzLjEyNSwxNDgyLjc1IFExMDQzLjEyNSwxNDgyLjc1IDEwNDMuMTI1LDE0ODUuNTYyNSBMMTA0NC44NzUsMTQ4NS41NjI1IFExMDQ0Ljg3NSwxNDg1LjU2MjUgMTA0NC44NzUsMTQ4Mi43NSBMMTA0My4xMjUsMTQ4Mi43NSBaIE0xMDM4Ljg3NSwxNDgzLjQzNzUgTDEwNDMuODEyNSwxNDgzLjQzNzUgTDEwNDMuODEyNSwxNDgxLjY4NzUgTDEwMzguODc1LDE0ODEuNjg3NSBMMTAzOC44NzUsMTQ4My40Mzc1IFogIiBmaWxsPSIjMDAwMDAwIi8+PHRleHQgZmlsbD0iIzAwMDAwMCIgZm9udC1mYW1pbHk9InNhbnMtc2VyaWYiIGZvbnQtc2l6ZT0iMTQiIGxlbmd0aEFkanVzdD0ic3BhY2luZyIgdGV4dExlbmd0aD0iNTciIHg9IjEwNjEuNzUiIHk9IjE0OTIuNzQyMiI+RG9jdW1lbnQ8L3RleHQ+PGxpbmUgc3R5bGU9InN0cm9rZTojMTgxODE4O3N0cm9rZS13aWR0aDowLjU7IiB4MT0iODU3LjUiIHgyPSIxMjkwLjUiIHkxPSIxNTAzIiB5Mj0iMTUwMyIvPjxyZWN0IGZpbGw9Im5vbmUiIGhlaWdodD0iNiIgc3R5bGU9InN0cm9rZTojQzgyOTMwO3N0cm9rZS13aWR0aDoxLjA7IiB3aWR0aD0iNiIgeD0iODY0LjUiIHk9IjE1MTIuOTkyMiIvPjx0ZXh0IGZpbGw9IiMwMDAwMDAiIGZvbnQtZmFtaWx5PSJzYW5zLXNlcmlmIiBmb250LXNpemU9IjE0IiBsZW5ndGhBZGp1c3Q9InNwYWNpbmciIHRleHRMZW5ndGg9IjE3NSIgeD0iODc2LjUiIHk9IjE1MjAuMjM0NCI+c3RkOjp2ZWN0b3ImbHQ7TGV2ZWwmZ3Q7IHN0YWNrXzwvdGV4dD48cmVjdCBmaWxsPSJub25lIiBoZWlnaHQ9IjYiIHN0eWxlPSJzdHJva2U6I0M4MjkzMDtzdHJva2Utd2lkdGg6MS4wOyIgd2lkdGg9IjYiIHg9Ijg2NC41IiB5PSIxNTI3Ljk3NjYiLz48dGV4dCBmaWxsPSIjMDAwMDAwIiBmb250LWZhbWlseT0ic2Fucy1zZXJpZiIgZm9udC1zaXplPSIxNCIgbGVuZ3RoQWRqdXN0PSJzcGFjaW5nIiB0ZXh0TGVuZ3RoPSI3MCIgeD0iODc2LjUiIHk9IjE1MzUuMjE4OCI+VmFsdWUga2V5XzwvdGV4dD48cmVjdCBmaWxsPSJub25lIiBoZWlnaHQ9IjYiIHN0eWxlPSJzdHJva2U6I0M4MjkzMDtzdHJva2Utd2lkdGg6MS4wOyIgd2lkdGg9IjYiIHg9Ijg2NC41IiB5PSIxNTQyLjk2MDkiLz48dGV4dCBmaWxsPSIjMDAwMDAwIiBmb250LWZhbWlseT0ic2Fucy1zZXJpZiIgZm9udC1zaXplPSIxNCIgbGVuZ3RoQWRqdXN0PSJzcGFjaW5nIiB0ZXh0TGVuZ3RoPSI5OCIgeD0iODc2LjUiIHk9IjE1NTAuMjAzMSI+Ym9vbCBzZWVWYWx1ZV88L3RleHQ+PGxpbmUgc3R5bGU9InN0cm9rZTojMTgxODE4O3N0cm9rZS13aWR0aDowLjU7IiB4MT0iODU3LjUiIHgyPSIxMjkwLjUiIHkxPSIxNTU1Ljk1MzEiIHkyPSIxNTU1Ljk1MzEiLz48ZWxsaXBzZSBjeD0iODY3LjUiIGN5PSIxNTY4Ljk0NTMiIGZpbGw9IiM4NEJFODQiIHJ4PSIzIiByeT0iMyIgc3R5bGU9InN0cm9rZTojMDM4MDQ4O3N0cm9rZS13aWR0aDoxLjA7Ii8+PHRleHQgZmlsbD0iIzAwMDAwMCIgZm9udC1mYW1pbHk9InNhbnMtc2VyaWYiIGZvbnQtc2l6ZT0iMTQiIGxlbmd0aEFkanVzdD0ic3BhY2luZyIgdGV4dExlbmd0aD0iNDA5IiB4PSI4NzYuNSIgeT0iMTU3My4xODc1Ij5QYXJzZUVycm9yIHBhcnNlKGNvbnN0IHN0ZDo6c3RyaW5nX3ZpZXcmYW1wOyBqc29uKTogUGFyc2VFcnJvcjwvdGV4dD48ZWxsaXBzZSBjeD0iODY3LjUiIGN5PSIxNTgzLjkyOTciIGZpbGw9IiM4NEJFODQiIHJ4PSIzIiByeT0iMyIgc3R5bGU9InN0cm9rZTojMDM4MDQ4O3N0cm9rZS13aWR0aDoxLjA7Ii8+PHRleHQgZmlsbD0iIzAwMDAwMCIgZm9udC1mYW1pbHk9InNhbnMtc2VyaWYiIGZvbnQtc2l6ZT0iMTQiIGxlbmd0aEFkanVzdD0ic3BhY2luZyIgdGV4dExlbmd0aD0iNDA4IiB4PSI4NzYuNSIgeT0iMTU4OC4xNzE5Ij5QYXJzZUVycm9yIHBhcnNlKGNvbnN0IGNoYXIqIGpzb24sIHNpemVfdCBsZW4pOiBQYXJzZUVycm9yPC90ZXh0PjxlbGxpcHNlIGN4PSI4NjcuNSIgY3k9IjE1OTguOTE0MSIgZmlsbD0iIzg0QkU4NCIgcng9IjMiIHJ5PSIzIiBzdHlsZT0ic3Ryb2tlOiMwMzgwNDg7c3Ryb2tlLXdpZHRoOjEuMDsiLz48dGV4dCBmaWxsPSIjMDAwMDAwIiBmb250LWZhbWlseT0ic2Fucy1zZXJpZiIgZm9udC1zaXplPSIxNCIgbGVuZ3RoQWRqdXN0PSJzcGFjaW5nIiB0ZXh0TGVuZ3RoPSIzNTQiIHg9Ijg3Ni41IiB5PSIxNjAzLjE1NjMiPlBhcnNlRXJyb3IgcGFyc2VTdHJlYW0oUmVhZFN0cmVhbSZhbXA7IGlzKTogUGFyc2VFcnJvcjwvdGV4dD48L2c+PCEtLXJldmVyc2UgbGluayBIYW5kbGVyIHRvIFZhbHVlLS0+PGcgaWQ9ImxpbmtfSGFuZGxlcl9WYWx1ZSI+PHBhdGggY29kZUxpbmU9IjE0NiIgZD0iTTEyMDAuNDY5NSwyODQuMTY4NiBDMTIwNi4yNzk1LDM3OC4zMjg2IDEyMDkuOCw1MTguMjEgMTE5MSw2NDMgQzExODguMDQsNjYyLjY2IDExODQuMjgsNjgyLjcgMTE3OS45Myw3MDIuOCAiIGZpbGw9Im5vbmUiIGlkPSJIYW5kbGVyLWJhY2t0by1WYWx1ZSIgc3R5bGU9InN0cm9rZTojMTgxODE4O3N0cm9rZS13aWR0aDoxLjA7c3Ryb2tlLWRhc2hhcnJheTo3LjAsNy4wOyIvPjxwb2x5Z29uIGZpbGw9IiMxODE4MTgiIHBvaW50cz0iMTIwMC4xLDI3OC4xOCwxMTk2LjY2MTksMjg3LjQwOTMsMTIwMC40MDc5LDI4My4xNzA1LDEyMDQuNjQ2NywyODYuOTE2NiwxMjAwLjEsMjc4LjE4IiBzdHlsZT0ic3Ryb2tlOiMxODE4MTg7c3Ryb2tlLXdpZHRoOjEuMDsiLz48L2c+PCEtLXJldmVyc2UgbGluayBTdHJpbmdXcml0ZVN0cmVhbSB0byBXcml0ZXItLT48ZyBpZD0ibGlua19TdHJpbmdXcml0ZVN0cmVhbV9Xcml0ZXIiPjxwYXRoIGNvZGVMaW5lPSIyMDEiIGQ9Ik0xNjYuMTA2NiwyMTUuOTI3OCBDMTk5LjYxNjYsMjc4Ljk1NzggMjczLjgxLDQxOC41IDMxNS42Nyw0OTcuMjIgIiBmaWxsPSJub25lIiBpZD0iU3RyaW5nV3JpdGVTdHJlYW0tYmFja3RvLVdyaXRlciIgc3R5bGU9InN0cm9rZTojMTgxODE4O3N0cm9rZS13aWR0aDoxLjA7c3Ryb2tlLWRhc2hhcnJheTo3LjAsNy4wOyIvPjxwb2x5Z29uIGZpbGw9IiMxODE4MTgiIHBvaW50cz0iMTYzLjI5LDIxMC42MywxNjMuOTgzLDIyMC40NTQ0LDE2NS42MzcyLDIxNS4wNDQ4LDE3MS4wNDY4LDIxNi42OTksMTYzLjI5LDIxMC42MyIgc3R5bGU9InN0cm9rZTojMTgxODE4O3N0cm9rZS13aWR0aDoxLjA7Ii8+PC9nPjwhLS1yZXZlcnNlIGxpbmsgRmlsZVdyaXRlU3RyZWFtIHRvIFdyaXRlci0tPjxnIGlkPSJsaW5rX0ZpbGVXcml0ZVN0cmVhbV9Xcml0ZXIiPjxwYXRoIGNvZGVMaW5lPSIyMDIiIGQ9Ik0zOTIuNDM4NywyMjQuMTg0OSBDMzgyLjU2ODcsMjkwLjY1NDkgMzYzLjEzLDQyMS42NSAzNTEuODksNDk3LjMyICIgZmlsbD0ibm9uZSIgaWQ9IkZpbGVXcml0ZVN0cmVhbS1iYWNrdG8tV3JpdGVyIiBzdHlsZT0ic3Ryb2tlOiMxODE4MTg7c3Ryb2tlLXdpZHRoOjEuMDtzdHJva2UtZGFzaGFycmF5OjcuMCw3LjA7Ii8+PHBvbHlnb24gZmlsbD0iIzE4MTgxOCIgcG9pbnRzPSIzOTMuMzIsMjE4LjI1LDM4OC4wNDE1LDIyNi41NjQ5LDM5Mi41ODU2LDIyMy4xOTU4LDM5NS45NTQ3LDIyNy43Mzk5LDM5My4zMiwyMTguMjUiIHN0eWxlPSJzdHJva2U6IzE4MTgxODtzdHJva2Utd2lkdGg6MS4wOyIvPjwvZz48IS0tcmV2ZXJzZSBsaW5rIEhhbmRsZXIgdG8gV3JpdGVyLS0+PGcgaWQ9ImxpbmtfSGFuZGxlcl9Xcml0ZXIiPjxwYXRoIGNvZGVMaW5lPSIyMDMiIGQ9Ik0xMDI4LjI3NTQsMjc3LjcwOSBDMTAyMi40MzU0LDI4MC41NzkgMTAzMi43NywyNzUuNCAxMDI3LDI3OCBDNzg2LjUyLDM4Ni40OSA2OTUuNjUsMzM3LjQ5IDQ2Miw0NjAgQzQ0Mi4zNCw0NzAuMzEgNDIyLjU3LDQ4My45MSA0MDQuOTgsNDk3LjQyICIgZmlsbD0ibm9uZSIgaWQ9IkhhbmRsZXItYmFja3RvLVdyaXRlciIgc3R5bGU9InN0cm9rZTojMTgxODE4O3N0cm9rZS13aWR0aDoxLjA7c3Ryb2tlLWRhc2hhcnJheTo3LjAsNy4wOyIvPjxwb2x5Z29uIGZpbGw9Im5vbmUiIHBvaW50cz0iMTA0NC40MywyNjkuNzcsMTAyNS42MjksMjcyLjMyNDEsMTAzMC45MjE3LDI4My4wOTM5LDEwNDQuNDMsMjY5Ljc3IiBzdHlsZT0ic3Ryb2tlOiMxODE4MTg7c3Ryb2tlLXdpZHRoOjEuMDsiLz48L2c+PCEtLXJldmVyc2UgbGluayBGaWxlUmVhZFN0cmVhbSB0byBSZWFkZXItLT48ZyBpZD0ibGlua19GaWxlUmVhZFN0cmVhbV9SZWFkZXIiPjxwYXRoIGNvZGVMaW5lPSIyMjMiIGQ9Ik04OTkuMTE4OSwyMjQuMTA1IEM4ODYuNDQ4OSwyODAuNjg1IDg2My42NSwzODIuNDYgODQ2LjMsNDU5LjkgIiBmaWxsPSJub25lIiBpZD0iRmlsZVJlYWRTdHJlYW0tYmFja3RvLVJlYWRlciIgc3R5bGU9InN0cm9rZTojMTgxODE4O3N0cm9rZS13aWR0aDoxLjA7c3Ryb2tlLWRhc2hhcnJheTo3LjAsNy4wOyIvPjxwb2x5Z29uIGZpbGw9IiMxODE4MTgiIHBvaW50cz0iOTAwLjQzLDIxOC4yNSw4OTQuNTYsMjI2LjE1ODQsODk5LjMzNzQsMjIzLjEyOTIsOTAyLjM2NjcsMjI3LjkwNjYsOTAwLjQzLDIxOC4yNSIgc3R5bGU9InN0cm9rZTojMTgxODE4O3N0cm9rZS13aWR0aDoxLjA7Ii8+PC9nPjwhLS1yZXZlcnNlIGxpbmsgU3RyaW5nUmVhZFN0cmVhbSB0byBSZWFkZXItLT48ZyBpZD0ibGlua19TdHJpbmdSZWFkU3RyZWFtX1JlYWRlciI+PHBhdGggY29kZUxpbmU9IjIyNCIgZD0iTTY4MS4zNTksMjIzLjczNjMgQzcwNi40MDksMjgwLjMxNjMgNzUxLjYyLDM4Mi40NiA3ODUuOSw0NTkuOSAiIGZpbGw9Im5vbmUiIGlkPSJTdHJpbmdSZWFkU3RyZWFtLWJhY2t0by1SZWFkZXIiIHN0eWxlPSJzdHJva2U6IzE4MTgxODtzdHJva2Utd2lkdGg6MS4wO3N0cm9rZS1kYXNoYXJyYXk6Ny4wLDcuMDsiLz48cG9seWdvbiBmaWxsPSIjMTgxODE4IiBwb2ludHM9IjY3OC45MywyMTguMjUsNjc4LjkxNTksMjI4LjA5ODgsNjgwLjk1NDIsMjIyLjgyMiw2ODYuMjMxMSwyMjQuODYwMiw2NzguOTMsMjE4LjI1IiBzdHlsZT0ic3Ryb2tlOiMxODE4MTg7c3Ryb2tlLXdpZHRoOjEuMDsiLz48L2c+PCEtLXJldmVyc2UgbGluayBIYW5kbGVyIHRvIFJlYWRlci0tPjxnIGlkPSJsaW5rX0hhbmRsZXJfUmVhZGVyIj48cGF0aCBjb2RlTGluZT0iMjI2IiBkPSJNMTA5MC42NjM2LDI4Mi41Nzg3IEMxMDM0Ljk2MzYsMzM4Ljk2ODcgOTY5Ljc2LDQwNC45NyA5MTUuNDEsNDU5Ljk5ICIgZmlsbD0ibm9uZSIgaWQ9IkhhbmRsZXItYmFja3RvLVJlYWRlciIgc3R5bGU9InN0cm9rZTojMTgxODE4O3N0cm9rZS13aWR0aDoxLjA7c3Ryb2tlLWRhc2hhcnJheTo3LjAsNy4wOyIvPjxwb2x5Z29uIGZpbGw9IiMxODE4MTgiIHBvaW50cz0iMTA5NC44OCwyNzguMzEsMTA4NS43MDk1LDI4MS45MDIxLDEwOTEuMzY2MywyODEuODY3MiwxMDkxLjQwMTEsMjg3LjUyNCwxMDk0Ljg4LDI3OC4zMSIgc3R5bGU9InN0cm9rZTojMTgxODE4O3N0cm9rZS13aWR0aDoxLjA7Ii8+PC9nPjwhLS1yZXZlcnNlIGxpbmsgVmFsdWUgdG8gRG9jdW1lbnQtLT48ZyBpZD0ibGlua19WYWx1ZV9Eb2N1bWVudCI+PHBhdGggY29kZUxpbmU9IjI1MCIgZD0iTTEwNzQsMTM2OC4zNSBDMTA3NCwxNDEzLjU3IDEwNzQsMTQzNy43NyAxMDc0LDE0NzAuNzUgIiBmaWxsPSJub25lIiBpZD0iVmFsdWUtYmFja3RvLURvY3VtZW50IiBzdHlsZT0ic3Ryb2tlOiMxODE4MTg7c3Ryb2tlLXdpZHRoOjEuMDsiLz48cG9seWdvbiBmaWxsPSJub25lIiBwb2ludHM9IjEwNzQsMTM1MC4zNSwxMDY4LDEzNjguMzUsMTA4MCwxMzY4LjM1LDEwNzQsMTM1MC4zNSIgc3R5bGU9InN0cm9rZTojMTgxODE4O3N0cm9rZS13aWR0aDoxLjA7Ii8+PC9nPjwhLS1yZXZlcnNlIGxpbmsgUmVhZGVyIHRvIERvY3VtZW50LS0+PGcgaWQ9ImxpbmtfUmVhZGVyX0RvY3VtZW50Ij48cGF0aCBjb2RlTGluZT0iMjUxIiBkPSJNODAzLjgwMDEsNjQ4Ljk1MjkgQzc3Mi44OTAxLDgwMy4wNzI5IDczMS41MSwxMTE2LjQ0IDg0NSwxMzUwIEM4NjguODgsMTM5OS4xNSA5MTIuMjUsMTQ0MCA5NTQuODcsMTQ3MSAiIGZpbGw9Im5vbmUiIGlkPSJSZWFkZXItYmFja3RvLURvY3VtZW50IiBzdHlsZT0ic3Ryb2tlOiMxODE4MTg7c3Ryb2tlLXdpZHRoOjEuMDtzdHJva2UtZGFzaGFycmF5OjcuMCw3LjA7Ii8+PHBvbHlnb24gZmlsbD0iIzE4MTgxOCIgcG9pbnRzPSI4MDQuOTgsNjQzLjA3LDc5OS4yODgzLDY1MS4xMDc3LDgwMy45OTY4LDY0Ny45NzI0LDgwNy4xMzIxLDY1Mi42ODA4LDgwNC45OCw2NDMuMDciIHN0eWxlPSJzdHJva2U6IzE4MTgxODtzdHJva2Utd2lkdGg6MS4wOyIvPjwvZz48IS0tcmV2ZXJzZSBsaW5rIEhhbmRsZXIgdG8gRG9jdW1lbnQtLT48ZyBpZD0ibGlua19IYW5kbGVyX0RvY3VtZW50Ij48cGF0aCBjb2RlTGluZT0iMjUyIiBkPSJNMTI4OS41MTA2LDI5My4wODI2IEMxMzEyLjk1MDYsMzI4LjY3MjYgMTMyMiwzNTUuNzggMTMyMiwzOTkgQzEzMjIsMzk5IDEzMjIsMzk5IDEzMjIsMTAyNy41IEMxMzIyLDExNzEuMDggMTM2OCwxMjIxLjk4IDEzMDMsMTM1MCBDMTI3OC4xNSwxMzk4Ljk1IDEyMzQuMzQsMTQzOS44OCAxMTkxLjY1LDE0NzEgIiBmaWxsPSJub25lIiBpZD0iSGFuZGxlci1iYWNrdG8tRG9jdW1lbnQiIHN0eWxlPSJzdHJva2U6IzE4MTgxODtzdHJva2Utd2lkdGg6MS4wO3N0cm9rZS1kYXNoYXJyYXk6Ny4wLDcuMDsiLz48cG9seWdvbiBmaWxsPSJub25lIiBwb2ludHM9IjEyNzkuNjEsMjc4LjA1LDEyODQuNDk5OCwyOTYuMzgyOCwxMjk0LjUyMTUsMjg5Ljc4MjMsMTI3OS42MSwyNzguMDUiIHN0eWxlPSJzdHJva2U6IzE4MTgxODtzdHJva2Utd2lkdGg6MS4wOyIvPjwvZz48IS0tU1JDPVtyTGJqU3ZpdTRGeGtOdzVGQmt1dnhMb0pvVG5icWluV2NvUS1FQ081ZDNQcFN5RFdlb09xNjNtV3FrSWt3TXlfOEc0TVVpRGp4eWp2OVpSSEZobEloaEl4M3gwRHJsVjFCR0l0UUczLXdHN3lzTE9aZF9DcWdPUkFwcGVFeVhuUzE0YU9tc210M0MwbGdwSURtUm84T3NDVzM4X21icTZrTGc5bWNnMzNEcVBLVmxpOEg4VGxIQ1dhQkxPbkQ0Qm8wcThIdUE4aUljd0RUUGhhMkVHZUYzZDlvT1pfNEM0bFZQMkI2ZlZtb1UyMUNmb0JXV3BQZ3l6bVpJSUVNS2NlYjE1REN5azI5eGFZQnRoVVdMd191MEFVZkNhd3RKdTVmVmppckI0dkhjR0NtRWRmRGFpSE5YMENweXZRbTZfeDBiaU1RS0lQYVZ1MGwwS1haMjYyUlFycTJ4QzBmVGRSX05JVW1PbE5aMDc2T3ZXSzZ4MDhpWG5RTVBQY2xCeUJxdDRqdHh3S1pKZ3N4VmJwX0VURXYtVkJjVWQ4RzJEcHViLVJpd0tiNHJlVjV6Uk9LeWxkb3drSHZWWVVSVmtad1JkQWxFaXZVMDctIC00QXpXV2ZZa01EcE9RYjBvX2JxUjR5aV95QndzMExuYnV2WmR2a1VyRFJMcjdOenpxbFJDeHNmRlZVbEpFVEkySGxSTHJVY1Jway0gLXR2ZkVkV0lubm5WTWZ1SVZzZFRRNnBEeDdkdEpFRWJDeGxISlJIcVNTblRwcnVpaDRhRkM2VWVGNEgyaWJZRlF4WDVLUWprNE1FRG02MkU1eW9vR0hqNnAtX3dCaVhVYmI5U010Mi1hNDVrUklxWjBjUU5weXE1ZXQ3d3dqTjEwUkZLN2ZDRXI4cnRLR21UNjhIdVZYWGlFNXlFUTlMeG0wY1NQZ1ZiTWlfMGdsWnEyTU8tWG5rTll2ZVljZm1XR1lNMjJIZG5mM3NMeU11d2lydzJBRGFNWTBpRGdMcnRHSnc3WnFXVWI3OGZPMGxYbExwU05pcWpIQ3MwbmJuMlBjaUI3ajhlMTNYQ0M0RGFDR0l1UmVGUTZnMzhTUTdkdWw2czNIQTJVZDkyNWtMN2JHQXhKUy1MeGtpTi04a2pxQVRWeVRQb3N0VTJ1dGE3aW1aYnZEMUF6bGUzNWFCNVBqQ1RJR2s0anlHTnp1dkhETFplR0RaZlJwblM1YlFpQU9xZDhyS3JNZUlKWU5ObGtSZDRLSDlZOUZZelluOWhINm1GcnE1U0dFemZvdFQzeHNQSHJrWlBSMldFWnNuUkRab1RVdVRsdkVGN0h2Qm5ZUnFTcElvOVc1UHFZUzFxN0ZENkNjd0ZfaTJ6WGdqY3RDNFdaV2g3T1VTLW1ienluWFM5QllaalpJQ0FIYmpqODhFODlBcUhBSFdRQXB5LUFrTjdIckF2WkJxckdacUxRczFpUVR1M0NHSHZ6M1Y0UXVmWGVhNkp3cHg4eGtHY2dMV2Z4bUVVLWtaamlOWXJ3TXpxeGE1Rk9lNWk4UXdUdlEteVI1UGtPdW9CaC1HT2lqTEhKWWN4MWEzOGttdjAyTm03dWxYOFl3V09sV3ZJU05tVGZBQks2YUpEcmZLRzczQXJtdEtBTzkzNndKZUhBNGhiVTlLRTZBSnBkU2FCaWZrUTYwV2ZyRTJseU4tRFpsUDRfbGNOZ2hIQkVUQi1zaDg1WXpoTGlPdHNkQW8xd3JtQm1sMEFSYlFPT0RKOVRXLVZYZzMtdnc3eXZVUDNTQkVEMHVJUkw1YWRhczAzd3BqVUpCQkFHX0FiUjViVVFiSVpWTTQxRS11ZGk1RXc2OXdReWFqYTVaWUc4YktUa0F0UEtnTXoxN2lsNklMWFFELVN6UGctcFZHUklia2Zwa3VFaGlIS1ZpYTFlMHVXQW5WdlNIS1lVY2VydDVWa0Y3Yk15SUZxYnZ6RjZUbm9XbHlUOHp3QjFWRS1RZGJsWnBkVDhnYUpUZS1YbGVzTGRjcDdUR25PVlJsM3gtUF9HTTVfZkIxLUh6c00xYkNUSXBiM2ZkSUgyb0kxUGpoZXBVMDNaQ19tS0IyLXZ4RTVjR2JOc2ZtTmF5RVVHcVpJYnhpRmdRT3NFMUZqTTc4TGFJZkkxZDkyaDdDWXppNlg1MjAtRjVKMVMxemM2UWVLblp6ZGI4QWdsUEdtTFdNU1VPMGVISVdVSEtnbnAwRDd6TW1MM0w4UFE4a2JQeDc3RjZLSHBvMmp1TklfNm5YX0FxVDFGQWZmMHJ6UDZ6bVhCY2s3czJCQjR1a1lEVmlHUExqVTZoaklxeVNDUnJaRnFTVGJjTG5XSnRTd0djOEdjcU1JSHhTOTNBZDUyX1h1bjVkNURjZ0N0MEFqQXdOc1h4aW8yRGpXcFF6aXFBS3Y4ektzeGRIZTJEWXhkOVhnM083a3phdW9zeG1XSEE4cFVicnNnZHBlTmRINW1WNW54eEg5Wi1YRkJ3ckFiUC1zRy1fNWtpcm1mUXNuTERfYUhCVEh0UFJrMWp0R050X2wwOUNMR2ptcEdoWDRkdHZaZ3FZX3dlXzN0VGFrMWVla3RpZlhmZDdKNUFSUG85TTMzWEprUFJqN2NvbjBHV2JSLWJtYmNBSmhPV0NKekNDRGhVNnl0ek5BWDFBWjlPSkF5ZzhxSDFFdEw2dXplVldFR25MSDVPZ0ttZTNPVDlkTlRUOC04Um90S3dGc3hDNHJUZno2Qjd0aGZxUHNsbHhKZ05RclB6dGhHaEwyTHdDTU5YNWdKUWFuektVVXNWSnU0b2hQZjU4WmgzQUl2YnlqTGRMZ0dUd1pLcHRfMm0wMF0tLT48L2c+PC9zdmc+;" parent="1" vertex="1">
            <mxGeometry x="-3330" y="1320" width="1387" height="1656" as="geometry" />
          </mxCell>
        </UserObject>
      </root>
    </mxGraphModel>
  </diagram>
</mxfile>
